<svg width="199" height="169" viewBox="0 0 199 169" fill="none" xmlns="http://www.w3.org/2000/svg">
<path d="M27.6288 12.2973C65.7057 -16.8402 122.797 12.4367 147.658 31.8204C153.848 36.6473 198.885 71.7629 191.035 111.468C187.408 129.815 173.665 143.184 169.825 146.705C164.668 151.435 151.341 163.658 132.935 164.79C107.179 166.375 100.064 132.942 65.7895 140.899C21.967 151.073 8.07948 105.923 2.38386 86.5973C-5.28739 60.5623 6.19759 28.6967 27.6288 12.2973Z" fill="#FD6B52"/>
<mask id="mask0_1_289" style="mask-type:luminance" maskUnits="userSpaceOnUse" x="0" y="0" width="192" height="165">
<path d="M27.6288 12.2973C65.7057 -16.8402 122.797 12.4367 147.658 31.8204C153.848 36.6473 198.885 71.7629 191.035 111.468C187.408 129.815 173.665 143.184 169.825 146.705C164.668 151.435 151.341 163.658 132.935 164.79C107.179 166.375 100.064 132.942 65.7895 140.899C21.967 151.073 8.07948 105.923 2.38386 86.5973C-5.28739 60.5623 6.19759 28.6967 27.6288 12.2973Z" fill="white"/>
</mask>
<g mask="url(#mask0_1_289)">
<path d="M72.3871 76.4148C69.7114 72.931 61.2695 70.4379 52.0652 74.0098C42.8602 77.5823 21.5745 85.2598 16.1845 89.2891C16.1845 89.2891 11.9821 103.759 26.6921 114.538C26.6921 114.538 56.2564 107.304 64.3258 102.664C77.0814 95.3285 80.0539 86.3985 72.3871 76.4148Z" fill="#23164D"/>
<path d="M84.3282 76.9285C86.1863 73.061 86.0988 70.9073 96.5938 72.7854C107.089 74.6642 149.597 81.3667 163.011 92.2623C163.011 92.2623 167.697 103.847 160.805 129.637C160.805 129.637 102.603 113.362 94.9345 107.585C82.8126 98.4529 79.0032 88.011 84.3282 76.9285Z" fill="#23164D"/>
<path d="M69.6421 57.1216C71.6904 57.1216 73.3509 55.4611 73.3509 53.4128C73.3509 51.3646 71.6904 49.7041 69.6421 49.7041C67.5938 49.7041 65.9333 51.3646 65.9333 53.4128C65.9333 55.4611 67.5938 57.1216 69.6421 57.1216Z" fill="white"/>
<path d="M69.6339 57.4385C68.9033 57.4385 68.1845 57.2379 67.5452 56.8479C66.6277 56.2879 65.9833 55.4035 65.7308 54.3598C65.2089 52.2029 66.5389 50.0235 68.6958 49.5029C70.8508 48.9779 73.0308 50.311 73.5533 52.4673C73.8058 53.5123 73.6364 54.5923 73.0764 55.5104C72.5164 56.4279 71.6327 57.0716 70.5883 57.3241C70.2714 57.4004 69.952 57.4385 69.6339 57.4385ZM69.642 50.0191C69.3783 50.0191 69.1108 50.0498 68.8439 50.1142C67.0252 50.5542 65.9033 52.3923 66.3433 54.2104C66.5564 55.0916 67.0995 55.8373 67.8733 56.3091C68.647 56.7816 69.5583 56.9235 70.4389 56.7117C72.2577 56.2717 73.3796 54.4335 72.9402 52.6148C72.5652 51.0635 71.172 50.0191 69.642 50.0191Z" fill="#23164D"/>
<path d="M69.5321 56.2704C68.9514 56.2704 68.3852 55.896 68.3146 55.8479L68.7752 55.1741C68.9402 55.286 69.3602 55.501 69.6145 55.4473C69.6802 55.4329 69.7239 55.401 69.7633 55.3354C69.8258 55.2335 69.8258 55.2335 69.652 55.0235C69.4283 54.7535 69.0539 54.3016 69.2395 53.4941C69.3439 53.0423 69.5295 52.7066 69.6783 52.4373C69.9464 51.9529 69.9683 51.9129 69.5714 51.5941C68.9064 51.0623 67.7214 52.4366 67.7095 52.4498L67.0808 51.9298C67.7058 51.176 69.0402 50.1248 70.0808 50.9579C71.0146 51.7054 70.6689 52.3298 70.392 52.831C70.2614 53.0679 70.1127 53.3366 70.0339 53.6773C69.9383 54.091 70.0814 54.2635 70.2795 54.5029C70.4833 54.7491 70.8245 55.161 70.4589 55.7598C70.3027 56.016 70.0689 56.1835 69.7839 56.2441C69.7014 56.2623 69.6164 56.2704 69.5321 56.2704Z" fill="#23164D"/>
<path d="M91.2188 57.1216C93.2671 57.1216 94.9275 55.4611 94.9275 53.4128C94.9275 51.3646 93.2671 49.7041 91.2188 49.7041C89.1705 49.7041 87.51 51.3646 87.51 53.4128C87.51 55.4611 89.1705 57.1216 91.2188 57.1216Z" fill="white"/>
<path d="M91.2264 57.4385C90.9089 57.4385 90.5895 57.4004 90.2733 57.3235C88.117 56.8023 86.7864 54.6235 87.3077 52.4666C87.5602 51.4223 88.2045 50.5385 89.1227 49.9791C90.0402 49.4191 91.1214 49.2498 92.1651 49.5023C93.2101 49.7548 94.0933 50.3991 94.6533 51.316C95.2133 52.2329 95.3827 53.3135 95.1302 54.3591C94.8777 55.4035 94.2333 56.2872 93.3158 56.8472C92.6758 57.2372 91.9577 57.4385 91.2264 57.4385ZM87.9201 52.6148C87.4808 54.4335 88.6027 56.2716 90.4214 56.7116C91.3027 56.9248 92.2139 56.7816 92.987 56.3091C93.7608 55.8366 94.3039 55.0916 94.517 54.2104C94.7301 53.3298 94.587 52.4185 94.1151 51.6448C93.6426 50.8716 92.8977 50.3279 92.0164 50.1148C90.1977 49.6735 88.3601 50.796 87.9201 52.6148Z" fill="#23164D"/>
<path d="M91.3282 56.2704C91.2439 56.2704 91.1589 56.2623 91.0764 56.2448C90.7907 56.1835 90.5583 56.0166 90.4014 55.7598C90.0358 55.1616 90.377 54.7498 90.5807 54.5035C90.7782 54.2641 90.9226 54.0916 90.827 53.6779C90.7482 53.3373 90.6001 53.0685 90.4695 52.8316C90.192 52.3298 89.847 51.706 90.7814 50.9579C91.8207 50.1254 93.1558 51.1766 93.7801 51.9298L93.152 52.4504C93.1401 52.4366 91.947 51.0666 91.2901 51.5941C90.8926 51.9129 90.9145 51.9523 91.1832 52.4373C91.3314 52.7073 91.517 53.0429 91.6214 53.4941C91.8076 54.3016 91.4326 54.7541 91.2095 55.0235C91.0357 55.2335 91.0357 55.2335 91.0976 55.3354C91.137 55.4004 91.1814 55.4335 91.247 55.4479C91.4964 55.4985 91.927 55.2823 92.0851 55.1748L92.5457 55.8479C92.4751 55.896 91.9095 56.2704 91.3282 56.2704Z" fill="#23164D"/>
<path d="M92.9153 72.1885C88.7553 72.1885 67.4378 72.1885 63.2778 72.1885C57.1559 72.1885 51.1497 77.6597 50.5072 97.2222C50.0434 111.327 40.6859 163.988 41.8309 176.377C41.8309 176.377 56.9053 177.635 74.0365 177.635C74.2447 177.635 85.1415 144.883 85.1415 144.883L86.569 176.453C98.2078 175.571 116.461 174.187 120.644 170.443C122.595 157.423 111.152 113.805 107.006 91.2541C104.784 79.1766 98.7128 72.1885 92.9153 72.1885Z" fill="#23164D"/>
<path d="M45.462 146.763L44.6545 146.648C44.7045 146.295 49.642 111.13 50.1002 97.2085L50.9145 97.2354C50.4558 111.201 45.512 146.408 45.462 146.763Z" fill="#23164D"/>
<path d="M80.2132 76.4004L83.8226 81.3979C83.8226 81.3979 88.1801 76.6086 88.1801 72.0973L87.1194 70.6223H73.6195L72.6482 72.1323C72.6482 72.1323 73.2726 79.2811 75.3894 81.3979L80.2132 76.4004Z" fill="#FD6B52"/>
<path d="M83.7945 81.8973L80.1782 76.8904L75.3932 81.8473L75.1663 81.621C72.9938 79.4479 72.3595 72.456 72.3338 72.1592L72.3245 72.0523L73.4476 70.3066H87.2814L88.4957 71.9954V72.0973C88.4957 76.6773 84.237 81.4104 84.0557 81.6098L83.7945 81.8973ZM72.9726 72.2104C73.057 73.0648 73.6857 78.8223 75.3982 80.9348L80.2488 75.9098L83.8445 80.8892C84.7576 79.7979 87.8095 75.8779 87.8645 72.1979L86.9582 70.9366H73.792L72.9726 72.2104Z" fill="#23164D"/>
<path d="M87.2963 60.4791V72.2359C86.4194 73.5341 80.1401 75.8447 80.1401 75.8447C80.1401 75.8447 75.3488 74.5103 73.502 72.1966V55.2991C73.502 55.2991 78.7244 57.7522 87.2963 60.4791Z" fill="white"/>
<path d="M80.1533 76.176L80.0551 76.1485C79.8558 76.0929 75.1439 74.7591 73.2558 72.3935L73.187 72.3066V54.8022L73.6364 55.0135C73.6883 55.0379 78.942 57.4897 87.392 60.1785L87.612 60.2485V72.3316L87.5583 72.4116C86.6508 73.7554 80.902 75.8997 80.2495 76.1404L80.1533 76.176ZM73.8177 72.0841C75.4827 74.0666 79.4589 75.3141 80.1283 75.5129C81.8751 74.8641 86.162 73.1229 86.9814 72.131V60.7097C80.0164 58.4829 75.2489 56.4272 73.8177 55.7885V72.0841Z" fill="#23164D"/>
<path d="M84.6185 67.7436C85.4785 66.9048 86.3528 63.6023 87.296 63.2905V60.4792C78.7247 57.7523 73.5022 55.2992 73.5022 55.2992V64.8811C74.1559 65.3954 75.2522 68.2692 76.5978 69.2511C78.8734 70.9129 81.8616 70.433 84.6185 67.7436Z" fill="#23164D"/>
<path d="M90.1971 50.6935C91.0027 45.0629 89.5683 42.1617 84.0327 40.286C78.1139 38.2798 72.8846 40.8448 70.8783 46.7629C70.1858 48.8073 70.2096 51.5173 70.6015 53.4798H70.5927L71.1739 60.1473C71.4789 61.2598 72.1402 62.2423 73.057 62.9423L77.439 66.286C78.0902 66.7835 78.8877 67.0529 79.7083 67.0529H81.2614C82.0996 67.0529 82.914 66.7717 83.5733 66.2535L87.7914 62.9367C88.6777 62.2398 89.3171 61.2767 89.6146 60.1892C89.6146 60.1879 89.9583 52.3598 90.1971 50.6935Z" fill="white"/>
<path d="M81.2615 67.3672H79.7084C78.824 67.3672 77.9503 67.0716 77.2478 66.5354L72.8665 63.1916C71.9009 62.4541 71.1915 61.4029 70.8703 60.2304L70.2734 53.4404C69.9384 51.6822 69.8234 48.896 70.5803 46.661C72.6297 40.6154 78.0759 37.9329 84.1346 39.986C89.6365 41.851 91.364 44.7647 90.5096 50.7372C90.2765 52.3691 89.934 60.1229 89.9303 60.201C89.6053 61.4154 88.9196 62.4504 87.9871 63.1829L83.769 66.4997C83.0565 67.0591 82.1665 67.3672 81.2615 67.3672ZM70.9365 53.7948L71.4878 60.1198C71.7628 61.1041 72.3915 62.0366 73.2484 62.691L77.6303 66.0354C78.2234 66.4885 78.9615 66.7372 79.7084 66.7372H81.2615C82.0259 66.7372 82.7778 66.4772 83.3784 66.0047L87.5965 62.6879C88.424 62.0372 89.0328 61.1197 89.3109 60.1047C89.3146 59.8541 89.6472 52.311 89.8853 50.6485C90.6959 44.9822 89.1378 42.3485 83.9315 40.5835C78.1415 38.6204 73.1353 41.086 71.1771 46.8635C70.4453 49.0229 70.5765 51.7441 70.9109 53.4166L70.9865 53.7941H70.9365V53.7948Z" fill="#23164D"/>
<path d="M74.2019 43.0011C81.9663 44.5767 87.5194 42.9517 88.1288 43.0011C88.7382 43.0511 89.0651 46.7386 89.1963 48.4023C89.3269 50.0648 90.1707 51.2467 90.1707 51.2467C90.1707 51.2467 89.7132 54.7367 90.442 54.3842C91.1701 54.0311 92.0326 52.9836 92.4369 51.4673C92.8413 49.9511 92.9963 43.2204 92.032 41.1067C91.067 38.9923 85.122 38.0273 84.1201 36.2898C83.1188 34.5511 82.9219 35.5886 82.7032 36.5498C82.4838 37.5111 81.3001 35.8486 81.3001 35.8486C81.3001 35.8486 79.8332 32.0692 78.7213 33.4398C77.6088 34.8104 71.8332 36.7223 70.4432 38.6067C69.0532 40.4898 68.7551 45.3517 68.7963 46.9836C68.837 48.6148 69.3276 50.1811 69.6551 52.5948C69.9832 55.0079 70.9701 53.7367 71.202 52.8779C71.292 52.5442 71.0345 50.1492 71.0345 50.1492C71.0345 50.1492 72.7238 45.5623 72.8757 44.7098C73.1238 43.3142 72.8688 42.7311 74.2019 43.0011Z" fill="#23164D"/>
<path d="M80.8732 139.288C81.3764 139.288 81.7844 138.88 81.7844 138.377C81.7844 137.873 81.3764 137.465 80.8732 137.465C80.3699 137.465 79.9619 137.873 79.9619 138.377C79.9619 138.88 80.3699 139.288 80.8732 139.288Z" fill="white"/>
<path d="M80.8732 139.603C80.197 139.603 79.647 139.053 79.647 138.377C79.647 137.7 80.197 137.15 80.8732 137.15C81.5495 137.15 82.0989 137.7 82.0989 138.377C82.0989 139.053 81.5489 139.603 80.8732 139.603ZM80.8732 137.781C80.5451 137.781 80.2776 138.048 80.2776 138.377C80.2776 138.705 80.5451 138.972 80.8732 138.972C81.202 138.972 81.4689 138.705 81.4689 138.377C81.4689 138.047 81.202 137.781 80.8732 137.781Z" fill="#23164D"/>
<path d="M76.5001 154.904C77.0034 154.904 77.4114 154.496 77.4114 153.993C77.4114 153.489 77.0034 153.082 76.5001 153.082C75.9969 153.082 75.5889 153.489 75.5889 153.993C75.5889 154.496 75.9969 154.904 76.5001 154.904Z" fill="white"/>
<path d="M76.5002 155.219C75.8239 155.219 75.2739 154.669 75.2739 153.993C75.2739 153.317 75.8239 152.767 76.5002 152.767C77.1764 152.767 77.7264 153.317 77.7264 153.993C77.7264 154.669 77.1764 155.219 76.5002 155.219ZM76.5002 153.397C76.1714 153.397 75.9039 153.665 75.9039 153.993C75.9039 154.322 76.1714 154.589 76.5002 154.589C76.8289 154.589 77.0964 154.322 77.0964 153.993C77.0964 153.665 76.8289 153.397 76.5002 153.397Z" fill="#23164D"/>
<path d="M80.3527 119.494C80.8559 119.494 81.2639 119.086 81.2639 118.583C81.2639 118.08 80.8559 117.672 80.3527 117.672C79.8494 117.672 79.4414 118.08 79.4414 118.583C79.4414 119.086 79.8494 119.494 80.3527 119.494Z" fill="white"/>
<path d="M80.3527 119.809C79.6765 119.809 79.1265 119.259 79.1265 118.583C79.1265 117.907 79.6765 117.357 80.3527 117.357C81.029 117.357 81.5784 117.907 81.5784 118.583C81.5784 119.259 81.0284 119.809 80.3527 119.809ZM80.3527 117.987C80.0246 117.987 79.7571 118.255 79.7571 118.583C79.7571 118.912 80.0246 119.178 80.3527 119.178C80.6815 119.178 80.9484 118.912 80.9484 118.583C80.9484 118.254 80.6815 117.987 80.3527 117.987Z" fill="#23164D"/>
<path d="M79.7277 103.287C80.2309 103.287 80.6389 102.879 80.6389 102.376C80.6389 101.873 80.2309 101.465 79.7277 101.465C79.2244 101.465 78.8164 101.873 78.8164 102.376C78.8164 102.879 79.2244 103.287 79.7277 103.287Z" fill="white"/>
<path d="M79.7277 103.602C79.0515 103.602 78.5015 103.052 78.5015 102.376C78.5015 101.7 79.0515 101.15 79.7277 101.15C80.404 101.15 80.954 101.7 80.954 102.376C80.954 103.052 80.404 103.602 79.7277 103.602ZM79.7277 101.78C79.399 101.78 79.1321 102.048 79.1321 102.376C79.1321 102.704 79.399 102.972 79.7277 102.972C80.0559 102.972 80.3234 102.704 80.3234 102.376C80.3234 102.048 80.0565 101.78 79.7277 101.78Z" fill="#23164D"/>
<path d="M78.0101 87.2885C78.5134 87.2885 78.9213 86.8806 78.9213 86.3773C78.9213 85.874 78.5134 85.4661 78.0101 85.4661C77.5069 85.4661 77.0989 85.874 77.0989 86.3773C77.0989 86.8806 77.5069 87.2885 78.0101 87.2885Z" fill="white"/>
<path d="M78.0102 87.6035C77.334 87.6035 76.7839 87.0535 76.7839 86.3772C76.7839 85.701 77.334 85.151 78.0102 85.151C78.6865 85.151 79.2364 85.701 79.2364 86.3772C79.2364 87.0535 78.6865 87.6035 78.0102 87.6035ZM78.0102 85.7816C77.6821 85.7816 77.4146 86.0485 77.4146 86.3772C77.4146 86.7054 77.6821 86.9729 78.0102 86.9729C78.339 86.9729 78.6064 86.7054 78.6064 86.3772C78.6058 86.0485 78.3383 85.7816 78.0102 85.7816Z" fill="white"/>
<path d="M80.402 55.9072L80.1882 55.1204C81.1001 54.8722 82.1513 54.381 82.2613 54.0466C82.267 54.0297 82.2757 54.0041 82.2207 53.9348C80.422 51.6635 81.0163 48.6472 81.0432 48.521L81.842 48.6841C81.8364 48.7116 81.302 51.4604 82.8607 53.4291C83.0707 53.6954 83.1338 54.0047 83.0357 54.3016C82.737 55.2085 80.9445 55.7597 80.402 55.9072Z" fill="#23164D"/>
<path d="M74.7415 49.3411L74.2859 48.6655C77.2159 46.6911 79.4115 48.508 79.4334 48.5261L78.9059 49.1486C78.8353 49.0886 77.1453 47.7217 74.7415 49.3411Z" fill="#23164D"/>
<path d="M84.4003 59.0148C84.4003 59.0148 81.4622 57.3873 77.2947 58.9754C77.2947 58.9754 80.1922 64.6917 84.4003 59.0148Z" fill="#23164D"/>
<path d="M77.8228 50.7341C77.839 50.686 77.8547 50.6379 77.864 50.5866C77.9559 50.051 77.5965 49.541 77.0603 49.4491C76.5246 49.3573 76.0147 49.7166 75.9222 50.2523C75.8828 50.4804 75.929 50.7016 76.0321 50.8904C76.619 50.7541 77.2215 50.7054 77.8228 50.7341Z" fill="#23164D"/>
<path d="M87.2319 49.4598C87.1701 49.3904 85.702 47.7867 83.0851 49.0304L82.7351 48.2936C85.9289 46.7761 87.827 48.901 87.8463 48.9223L87.2313 49.4573L87.5388 49.1898L87.2319 49.4598Z" fill="#23164D"/>
<path d="M85.9253 50.866C85.9484 50.8217 85.9709 50.776 85.9878 50.7266C86.159 50.2104 85.879 49.6529 85.3628 49.4817C84.8459 49.311 84.289 49.591 84.1178 50.1073C84.0453 50.3273 84.0577 50.5523 84.1315 50.7535C84.7315 50.7079 85.3353 50.7498 85.9253 50.866Z" fill="#23164D"/>
<path d="M111.786 114.863L110.971 114.842C111.175 106.664 106.724 89.0329 106.68 88.8554L107.47 88.6548C107.654 89.3817 111.993 106.572 111.786 114.863Z" fill="white"/>
<path d="M156.208 126.865L155.406 126.719C155.556 125.899 155.698 125.068 155.83 124.227L156.636 124.355C156.502 125.202 156.36 126.039 156.208 126.865ZM157.119 120.995L156.311 120.889C156.42 120.059 156.52 119.221 156.615 118.377L157.425 118.469C157.33 119.317 157.228 120.159 157.119 120.995ZM157.766 115.094L156.954 115.021C157.03 114.184 157.098 113.342 157.163 112.497L157.977 112.559C157.912 113.407 157.842 114.253 157.766 115.094ZM158.202 109.174L157.388 109.127C157.437 108.285 157.48 107.442 157.519 106.597L158.334 106.635C158.296 107.483 158.252 108.33 158.202 109.174ZM158.463 103.248L157.648 103.222C157.675 102.377 157.697 101.534 157.714 100.69L158.53 100.707C158.512 101.553 158.491 102.4 158.463 103.248ZM158.578 97.3198L157.763 97.3135C157.77 96.5398 157.773 95.7685 157.773 95.001V94.7792H158.588V95.001C158.588 95.7717 158.585 96.5448 158.578 97.3198ZM157.751 91.4016C157.741 90.5516 157.727 89.706 157.711 88.8673L158.527 88.8517C158.543 89.6923 158.557 90.5398 158.567 91.3916L157.751 91.4016ZM157.626 85.4898C157.602 84.636 157.573 83.791 157.542 82.956L158.357 82.9254C158.388 83.7623 158.416 84.6092 158.442 85.4648L157.626 85.4898ZM157.4 79.5792C157.36 78.7217 157.318 77.8773 157.274 77.0473L158.089 77.0048C158.133 77.836 158.176 78.6823 158.215 79.5417L157.4 79.5792ZM157.08 73.6729C157.027 72.8073 156.972 71.9641 156.915 71.1423L157.73 71.0873C157.786 71.9098 157.841 72.756 157.895 73.6223L157.08 73.6729Z" fill="#23164D"/>
<path d="M85.9658 143.687H85.1502C85.1502 141.002 84.7746 138.01 84.3408 134.546C83.5864 128.533 82.6477 121.049 83.3827 111.9C84.5083 97.8754 79.4914 80.0523 79.4402 79.8736L80.2246 79.6504C80.2758 79.8304 85.3327 97.7917 84.1952 111.965C83.4671 121.031 84.4008 128.469 85.1496 134.445C85.5871 137.935 85.9658 140.951 85.9658 143.687Z" fill="white"/>
<path d="M81.5765 47.1667C80.4996 47.0686 79.3115 46.9579 77.984 46.8323C71.8865 46.2486 69.979 46.3473 69.0577 45.9842C68.8971 45.9267 68.2033 48.2861 68.7077 48.7929C70.069 50.1492 71.3815 51.5373 75.0421 53.2848C79.1765 55.2642 80.0946 52.7286 81.9271 52.6636C81.2471 50.7267 81.4571 49.0586 81.5765 47.1667ZM80.8165 49.5379C80.6365 51.5742 78.9846 52.6729 76.9771 52.4942C74.9621 52.3161 73.474 50.5223 73.654 48.4861C73.8665 46.0898 79.954 47.8342 79.954 47.8342C80.5959 48.1248 80.8452 48.7448 80.8296 49.3167C80.8271 49.3911 80.8234 49.4648 80.8165 49.5379Z" fill="#23164D"/>
<path d="M81.1245 52.6629C82.9564 52.7279 83.8751 55.2636 88.0089 53.2842C91.6689 51.5367 91.8733 50.7379 93.2339 49.3817C93.7383 48.8742 93.0445 46.5154 92.8833 46.5736C91.962 46.9367 91.1639 46.2486 85.067 46.8323C83.7395 46.9579 82.5514 47.0686 81.4745 47.1667C81.1245 49.0129 81.8045 50.7267 81.1245 52.6629ZM82.2226 49.3173C82.207 48.7454 82.4564 48.1254 83.0983 47.8348C83.0983 47.8348 89.1864 46.0904 89.3982 48.4867C89.5782 50.5229 88.0901 52.3167 86.0758 52.4948C84.0683 52.6729 82.4164 51.5742 82.2358 49.5386C82.2289 49.4648 82.2245 49.3911 82.2226 49.3173Z" fill="#23164D"/>
<path d="M68.5609 41.0441C68.3252 42.931 67.8933 44.0554 68.3352 44.6854C68.7777 45.316 89.7665 48.0003 92.484 45.576C93.4558 44.7097 92.8602 41.1835 92.4115 40.4166C91.9627 39.6503 90.7421 40.5072 86.3677 40.6497C81.9933 40.7928 72.424 40.361 70.8652 39.741C69.3065 39.1216 68.6634 40.2285 68.5609 41.0441Z" fill="#23164D"/>
<path d="M69.9851 39.6804C69.9851 39.6804 73.1651 32.6435 81.1632 33.0098C89.1614 33.3754 91.0851 39.206 91.5926 40.6935L80.2501 42.8567C80.2501 42.8567 74.0101 41.7704 73.7107 41.676C73.412 41.5823 69.9851 39.6804 69.9851 39.6804Z" fill="#23164D"/>
<path d="M85.1288 40.8679C78.1557 41.3666 70.0307 39.8866 69.9495 39.871L70.0201 39.4897C70.1007 39.5041 78.1782 40.976 85.1007 40.4804L85.1288 40.8679Z" fill="white"/>
<path d="M87.3996 40.1097L87.0115 40.1022C87.0759 36.6797 84.2309 34.5585 84.2021 34.5373L84.4315 34.2241C84.5553 34.3147 87.4678 36.4879 87.3996 40.1097Z" fill="white"/>
<path d="M81.8228 39.3886L81.4378 39.4373C81.1628 37.2598 81.5946 34.5204 81.6134 34.4042L81.9965 34.466C81.9922 34.4942 81.5547 37.2667 81.8228 39.3886Z" fill="white"/>
<path d="M74.7996 39.0073L74.4365 38.8692C75.824 35.2217 78.069 34.256 78.1634 34.2167L78.3121 34.5754C78.2915 34.5848 76.1234 35.5286 74.7996 39.0073Z" fill="white"/>
</g>
<path d="M112.4 114.764C112.4 114.764 133.653 128.187 174.312 129.142L180.042 108.677L173.524 89.3917L124.133 82.7054L112.4 114.764Z" fill="white"/>
<path d="M174.513 129.414L174.306 129.409C134.05 128.464 112.578 115.158 112.276 115.001L112.068 114.892L123.956 82.4117L124.17 82.4405L173.675 89.1424L180.334 108.626L180.299 108.749L174.513 129.414ZM112.731 114.633C115.479 116.008 135.836 127.923 174.11 128.87L179.75 108.727L173.373 89.6399L124.31 82.998L112.731 114.633Z" fill="#23164D"/>
<path d="M121.401 120.443C121.401 120.443 106.218 114.207 109.743 94.9592C113.268 75.7098 113.81 67.5767 110.285 55.9192C106.761 44.2617 128.992 45.0742 132.787 74.8967C136.583 104.719 142.818 112.039 121.401 120.443Z" fill="white"/>
<path d="M121.398 120.731L121.299 120.69C121.146 120.627 105.958 114.15 109.481 94.9111C112.965 75.8774 113.533 67.5855 110.029 55.9961C109.271 53.488 109.628 51.3686 111.034 50.0273C112.59 48.5448 115.204 48.2586 118.029 49.2611C123.985 51.378 131.06 59.2142 133.051 74.863C133.737 80.2492 134.498 84.8767 135.17 88.9598C138.218 107.487 139.245 113.728 121.498 120.692L121.398 120.731ZM114.834 49.2036C113.443 49.2036 112.244 49.6123 111.404 50.4142C110.151 51.6092 109.844 53.5367 110.541 55.8423C114.076 67.5373 113.508 75.8792 110.006 95.008C106.71 113.012 120.129 119.575 121.407 120.155C138.643 113.365 137.633 107.219 134.644 89.0473C133.972 84.9598 133.209 80.3273 132.523 74.9311C130.561 59.523 123.658 51.8286 117.851 49.7655C116.792 49.3892 115.769 49.2036 114.834 49.2036Z" fill="#23164D"/>
<path d="M121.27 120.763C121.115 120.699 105.869 114.197 109.403 94.8967L110.083 95.0205C106.653 113.758 121.383 120.062 121.532 120.124L121.27 120.763Z" fill="#23164D"/>
<path d="M131.906 75.9204C131.871 77.0904 131.595 78.2585 131.13 79.3523C130.666 80.4479 129.974 81.4667 129.076 82.2823C128.635 82.7035 128.107 83.0129 127.587 83.3248C127.022 83.5479 126.475 83.8198 125.873 83.9004C125.29 84.0661 124.686 84.0454 124.096 84.0673C123.8 84.0898 123.507 84.0048 123.216 83.9779C122.925 83.9398 122.635 83.8936 122.35 83.8417C122.937 83.7786 123.514 83.821 124.08 83.7285C124.644 83.6279 125.21 83.5779 125.738 83.3773C126.286 83.2448 126.778 82.9798 127.28 82.7467C127.742 82.4429 128.22 82.1617 128.615 81.7679C129.443 81.0329 130.108 80.1148 130.645 79.1198C131.168 78.1173 131.608 77.0485 131.906 75.9204Z" fill="#23164D"/>
<path d="M137.595 141.983C155.226 148.368 174.687 139.255 181.068 121.632C185.732 108.757 182.101 94.9286 172.948 85.9042L194.669 25.9286L186.183 7.8186L168.076 16.298L173.732 28.3748L161.654 34.0305L167.31 46.108L155.236 51.7555L160.89 63.8324L148.814 69.4886L146.357 76.2724C133.547 77.3436 121.905 85.6411 117.242 98.5149C110.857 116.142 119.97 135.6 137.595 141.983ZM149.152 110.072C155.03 112.202 158.069 118.692 155.942 124.565C153.817 130.436 147.325 133.475 141.447 131.346C135.575 129.219 132.535 122.732 134.662 116.857C136.788 110.984 143.277 107.946 149.152 110.072Z" fill="#23164D"/>
<path d="M190.605 89.9293C190.605 89.9293 204.635 86.0662 195.688 70.8168C186.742 55.5668 174.542 60.853 173.932 66.953C173.322 73.053 172.475 76.9837 180.812 82.0674C180.812 82.0674 171.878 81.5249 170.171 88.4049C168.463 95.2849 172.712 100.097 172.712 100.097C172.712 100.097 165.107 97.9618 162.749 100.91C160.39 103.859 160.309 112.703 167.019 117.786C167.019 117.786 156.765 118.533 159.699 128.665C161.449 134.708 164.273 136.29 164.273 136.29L166.341 138.801C166.341 138.801 177.117 147.134 178.338 126.937C178.338 126.937 190.944 121.244 183.082 109.179C183.082 109.179 200.84 102.943 190.605 89.9293Z" fill="white"/>
<path d="M171.057 140.775C168.495 140.775 166.295 139.103 166.177 139.012L164.097 136.496C163.707 136.255 161.103 134.473 159.443 128.739C158.541 125.626 158.772 123.057 160.13 121.107C161.888 118.582 165.007 117.819 166.355 117.602C162.467 114.392 161.418 110.264 161.14 108.033C160.777 105.122 161.327 102.26 162.54 100.744C164.56 98.2186 170.032 99.1924 172.042 99.6542C170.97 98.1186 168.542 93.8586 169.912 88.3405C171.317 82.6792 177.505 81.8936 179.889 81.8036C172.615 77.0942 173.023 73.1567 173.58 67.7773L173.667 66.9274C173.951 64.088 176.537 61.5817 179.956 60.8336C185.606 59.5967 191.576 63.2786 195.919 70.6824C198.905 75.7717 199.683 80.163 198.233 83.7349C196.533 87.9199 192.338 89.633 191.052 90.0711C193.72 93.5855 194.614 96.9411 193.709 100.05C192.063 105.701 185.083 108.695 183.487 109.315C185.762 112.92 186.453 116.323 185.545 119.432C184.151 124.197 179.503 126.669 178.596 127.112C178.129 134.474 176.333 138.915 173.256 140.312C172.518 140.644 171.773 140.775 171.057 140.775ZM166.547 138.631C166.558 138.631 169.978 141.213 173.037 139.823C175.94 138.503 177.633 134.162 178.072 126.92L178.082 126.759L178.228 126.693C178.282 126.669 183.59 124.216 185.033 119.277C185.918 116.244 185.187 112.896 182.859 109.324L182.673 109.039L182.994 108.927C183.078 108.897 191.453 105.89 193.197 99.8967C194.076 96.8736 193.133 93.5761 190.396 90.0942L190.148 89.7786L190.535 89.6717C190.588 89.6574 195.865 88.1499 197.74 83.528C199.122 80.1186 198.355 75.8867 195.459 70.9511C191.238 63.7561 185.488 60.1705 180.07 61.3542C176.875 62.0536 174.46 64.3661 174.198 66.9792L174.111 67.8311C173.533 73.403 173.152 77.0842 180.951 81.8392L181.867 82.398L180.796 82.3336C180.706 82.328 172.063 81.8861 170.43 88.4686C168.775 95.1348 172.871 99.8717 172.913 99.9186L173.512 100.597L172.64 100.352C172.565 100.332 165.178 98.2992 162.958 101.075C161.829 102.485 161.324 105.189 161.669 107.964C161.948 110.205 163.035 114.432 167.18 117.572L167.743 117.999L167.038 118.051C166.995 118.054 162.654 118.408 160.566 121.412C159.306 123.224 159.1 125.639 159.955 128.589C161.647 134.432 164.377 136.04 164.404 136.055L164.479 136.118L166.547 138.631Z" fill="#23164D"/>
<path d="M173.187 100.367C175.28 100.824 177.238 101.832 178.948 103.144C179.805 103.802 180.575 104.576 181.243 105.423C181.93 106.26 182.427 107.238 182.811 108.229C182.186 107.359 181.563 106.523 180.834 105.774C180.109 105.03 179.357 104.312 178.523 103.688C177.707 103.045 176.843 102.46 175.953 101.907C175.055 101.368 174.142 100.841 173.187 100.367Z" fill="#23164D"/>
<path d="M167.9 118.057C169.993 118.514 171.952 119.523 173.662 120.834C174.518 121.492 175.288 122.266 175.957 123.114C176.643 123.95 177.14 124.929 177.525 125.919C176.899 125.049 176.276 124.212 175.548 123.464C174.822 122.72 174.07 122.002 173.237 121.378C172.42 120.735 171.556 120.149 170.666 119.597C169.768 119.058 168.856 118.531 167.9 118.057Z" fill="#23164D"/>
<path d="M180.812 82.0674C182.905 82.5243 184.863 83.533 186.573 84.8449C187.429 85.5024 188.2 86.2761 188.868 87.1236C189.555 87.9599 190.051 88.9386 190.436 89.9286C189.811 89.0593 189.188 88.223 188.459 87.4743C187.733 86.7299 186.981 86.0124 186.148 85.388C185.331 84.7455 184.468 84.1599 183.578 83.6074C182.68 83.068 181.767 82.5418 180.812 82.0674Z" fill="#23164D"/>
<path d="M50.5657 168.618H62.6575L67.0438 145.777C67.7469 142.116 64.9407 138.72 61.2125 138.72C58.365 138.72 55.9181 140.74 55.3813 143.537L50.5657 168.618Z" fill="white"/>
<path d="M62.8044 168.795H50.3513L50.3919 168.585L55.2076 143.505C55.7601 140.629 58.2851 138.543 61.2126 138.543C63.0419 138.543 64.7607 139.352 65.9263 140.763C67.0913 142.174 67.5626 144.014 67.2176 145.811L62.8044 168.795ZM50.7801 168.441H62.5119L66.8701 145.744C67.1951 144.05 66.7513 142.317 65.6532 140.989C64.555 139.659 62.9363 138.897 61.2126 138.897C58.4544 138.897 56.0751 140.863 55.5551 143.571L50.7801 168.441Z" fill="#23164D"/>
<path d="M62.8295 163.515L62.3451 163.422L65.7795 145.534C66.042 144.167 65.6839 142.768 64.7976 141.695C63.912 140.622 62.6051 140.007 61.2133 140.007C58.987 140.007 57.067 141.594 56.6464 143.78L54.5945 154.468L54.1101 154.375L56.1626 143.687C56.627 141.27 58.7514 139.514 61.2133 139.514C62.752 139.514 64.1976 140.195 65.1783 141.381C66.1589 142.567 66.5545 144.115 66.2645 145.627L62.8295 163.515Z" fill="#23164D"/>
<path d="M85.1858 166.581H53.1621V168.619H85.1858V166.581Z" fill="white"/>
<path d="M85.3627 168.795H52.9839V166.404H85.3627V168.795ZM53.3383 168.441H85.0083V166.758H53.3383V168.441Z" fill="#23164D"/>
<path d="M85.1857 166.333H58.9194V166.827H85.1857V166.333Z" fill="#23164D"/>
<path d="M100.618 159.627H31.5821C29.7396 159.627 28.1952 158.235 28.0027 156.403L23.6352 114.7C23.4127 112.576 25.0783 110.727 27.2139 110.727H96.2508C98.0927 110.727 99.6377 112.118 99.8295 113.95L104.197 155.654C104.42 157.777 102.755 159.627 100.618 159.627Z" fill="white"/>
<path d="M100.618 159.788H31.582C29.6514 159.788 28.0439 158.34 27.8427 156.419L23.4751 114.716C23.3645 113.659 23.7095 112.598 24.4214 111.809C25.1333 111.018 26.1514 110.565 27.2145 110.565H96.2508C98.182 110.565 99.7895 112.013 99.9901 113.934L104.358 155.637C104.469 156.694 104.124 157.755 103.412 158.544C102.701 159.334 101.683 159.788 100.618 159.788ZM27.2145 110.887C26.242 110.887 25.312 111.302 24.6608 112.024C24.0102 112.746 23.6951 113.715 23.7958 114.682L28.1633 156.385C28.347 158.141 29.817 159.465 31.582 159.465H100.618C101.591 159.465 102.522 159.051 103.173 158.329C103.823 157.606 104.138 156.637 104.037 155.67L99.6695 113.967C99.4864 112.211 98.0164 110.887 96.2508 110.887H27.2145Z" fill="#23164D"/>
<path d="M65.7902 140.899C49.9277 144.582 37.9896 141.013 28.9402 134.047L31.0833 154.511H100.607L99.9789 148.515C91.3246 142.21 81.3596 137.284 65.7902 140.899Z" fill="white"/>
<path d="M94.7626 114.352H28.8963C28.3751 114.352 27.8945 114.565 27.5451 114.953C27.1957 115.34 27.0338 115.84 27.0882 116.36L28.9401 134.047C37.9895 141.013 49.9276 144.581 65.7901 140.899C81.3601 137.284 91.3244 142.211 99.9788 148.516L96.572 115.981C96.4751 115.052 95.6963 114.352 94.7626 114.352Z" fill="#FD6B52"/>
<path d="M100.786 154.673H30.9382L26.9275 116.377C26.8681 115.812 27.045 115.268 27.425 114.845C27.8057 114.423 28.3282 114.191 28.8963 114.191H94.7632C95.78 114.191 96.6269 114.954 96.7326 115.965L100.786 154.673ZM31.2288 154.35H100.428L96.4113 115.998C96.3225 115.152 95.6138 114.513 94.7625 114.513H28.8963C28.4207 114.513 27.9838 114.708 27.6651 115.061C27.3469 115.414 27.1988 115.87 27.2481 116.343L31.2288 154.35Z" fill="#23164D"/>
<path d="M100.618 158.312H31.5819C31.5044 158.312 31.4282 158.308 31.3525 158.3L31.4019 157.81C31.4613 157.816 31.5207 157.819 31.5819 157.819H100.618C101.131 157.819 101.604 157.607 101.949 157.227C102.293 156.845 102.453 156.352 102.4 155.841L98.0319 114.139C97.9369 113.224 97.1713 112.534 96.2513 112.534V112.041C97.4244 112.041 98.4007 112.921 98.5225 114.087L102.891 155.79C102.958 156.442 102.754 157.069 102.316 157.556C101.876 158.044 101.274 158.312 100.618 158.312Z" fill="#23164D"/>
<path d="M53.4195 152.062L74.1476 151.737C75.4432 151.717 76.477 150.65 76.4564 149.354L76.2001 133.034C76.1795 131.739 75.1126 130.705 73.8176 130.725L53.0889 131.051C51.7932 131.072 50.7595 132.138 50.7801 133.434L51.0364 149.753C51.057 151.049 52.1239 152.083 53.4195 152.062Z" fill="#23164D"/>
<path d="M53.792 126.71L54.0182 141.13L73.2057 140.829L72.9788 126.409C72.9776 126.321 72.9745 126.235 72.9714 126.149C72.9007 124.478 72.4014 122.92 71.5814 121.578C71.3232 121.155 71.0351 120.754 70.7157 120.379C69.7601 119.245 68.547 118.339 67.1701 117.745C66.3095 117.373 65.3851 117.125 64.417 117.022C64.0295 116.979 63.6345 116.96 63.2345 116.966C57.9457 117.048 53.7088 121.42 53.792 126.71ZM56.7938 126.663C56.7576 124.369 57.9038 122.326 59.6701 121.118C60.1045 120.82 60.577 120.572 61.0801 120.385C61.7676 120.127 62.5082 119.981 63.2813 119.969C63.4282 119.967 63.5714 119.968 63.7151 119.975C63.9701 119.988 64.2201 120.017 64.4676 120.057C65.482 120.227 66.4195 120.627 67.2232 121.207C67.6638 121.522 68.0651 121.891 68.4151 122.306C69.3657 123.428 69.9501 124.873 69.9751 126.457L70.1545 137.875L56.9726 138.082L56.7938 126.663Z" fill="#23164D"/>
<path d="M53.665 126.712C53.6244 124.12 54.5982 121.664 56.4075 119.797C58.2169 117.93 60.64 116.88 63.2325 116.839C63.6319 116.833 64.035 116.852 64.4306 116.896C65.3938 116.999 66.3319 117.245 67.2207 117.629C68.6013 118.225 69.8438 119.148 70.8132 120.297C71.1307 120.67 71.4257 121.079 71.6907 121.512C72.5425 122.907 73.03 124.509 73.0988 126.145C73.1019 126.232 73.1051 126.319 73.1063 126.407L73.335 140.954L53.8938 141.26L53.665 126.712ZM72.8525 126.41C72.8513 126.324 72.8482 126.239 72.845 126.154C72.7775 124.561 72.3032 123.001 71.4738 121.644C71.2157 121.221 70.9288 120.823 70.6194 120.459C69.6757 119.34 68.4657 118.441 67.12 117.86C66.2544 117.486 65.34 117.248 64.4031 117.147C64.0181 117.104 63.6257 117.085 63.2369 117.092C60.7125 117.131 58.3519 118.154 56.59 119.972C54.8282 121.79 53.8794 124.182 53.9194 126.707L54.1438 141L73.0775 140.702L72.8525 126.41ZM56.6669 126.664C56.6313 124.405 57.7269 122.292 59.5982 121.013C60.0469 120.705 60.5306 120.453 61.0356 120.265C61.7519 119.997 62.5069 119.854 63.2794 119.842C63.4488 119.839 63.5888 119.841 63.7219 119.848C63.9732 119.861 64.2313 119.889 64.4888 119.932C65.4963 120.1 66.4681 120.505 67.2969 121.103C67.7469 121.425 68.1557 121.801 68.5119 122.224C69.5132 123.405 70.0775 124.907 70.1019 126.454L70.2838 137.999L56.8482 138.21L56.6669 126.664ZM69.8482 126.457C69.825 124.969 69.2813 123.524 68.3182 122.387C67.9757 121.981 67.5819 121.619 67.1488 121.309C66.35 120.733 65.4163 120.343 64.4469 120.181C64.1988 120.141 63.9506 120.114 63.7081 120.101C63.5813 120.094 63.4463 120.092 63.2832 120.095C62.54 120.107 61.8132 120.243 61.1238 120.502C60.6382 120.683 60.1732 120.925 59.7413 121.222C57.9407 122.452 56.8863 124.485 56.92 126.659L57.0975 137.95L70.0257 137.747L69.8482 126.457Z" fill="#23164D"/>
<path d="M56.156 126.672L56.3822 141.092L75.5697 140.792L75.3429 126.364C75.3285 125.442 75.1822 124.551 74.9241 123.709C74.7497 123.144 74.526 122.601 74.2553 122.084C73.8635 121.336 73.376 120.646 72.8091 120.031C71.256 118.344 69.106 117.214 66.706 116.975C66.3422 116.937 65.971 116.922 65.5972 116.928C65.1979 116.934 64.8047 116.966 64.4172 117.021C63.671 117.124 62.9491 117.315 62.2685 117.58C62.0154 117.679 61.7685 117.788 61.5285 117.906C61.0278 118.153 60.5516 118.442 60.1041 118.771C59.6697 119.085 59.261 119.438 58.8866 119.824C58.6778 120.037 58.4779 120.262 58.2891 120.495C57.9716 120.887 57.6853 121.302 57.4341 121.741C57.2172 122.114 57.0272 122.502 56.8635 122.904C56.6472 123.43 56.4772 123.979 56.3604 124.544C56.3279 124.694 56.2997 124.845 56.2754 124.999C56.1872 125.544 56.1472 126.103 56.156 126.672ZM59.3378 138.044L59.1585 126.625C59.1397 125.425 59.4447 124.293 59.9947 123.311C60.1497 123.035 60.3235 122.769 60.5154 122.518C60.8497 122.083 61.2366 121.691 61.666 121.352C61.6804 121.34 61.6954 121.327 61.7116 121.315C62.1316 120.988 62.5972 120.707 63.0916 120.49C63.3385 120.381 63.5928 120.285 63.856 120.208C64.0553 120.147 64.2603 120.096 64.4678 120.056C64.8485 119.979 65.2416 119.938 65.6441 119.931C66.8554 119.912 67.9953 120.222 68.9785 120.777C68.9916 120.785 69.0041 120.791 69.0172 120.799C69.5216 121.089 69.986 121.442 70.3935 121.85C71.5454 122.993 72.2772 124.556 72.3372 126.292C72.3372 126.294 72.3372 126.294 72.3372 126.295C72.3397 126.337 72.3403 126.377 72.341 126.418L72.5203 137.836L59.3378 138.044Z" fill="white"/>
<path d="M56.029 126.675C56.0202 126.1 56.0609 125.53 56.1509 124.979C56.1777 124.812 56.2059 124.661 56.2371 124.519C56.354 123.954 56.5253 123.394 56.7465 122.856C56.9134 122.447 57.1077 122.05 57.3246 121.678C57.5746 121.241 57.8659 120.816 58.1902 120.415C58.3796 120.18 58.5834 119.952 58.7959 119.734C59.1759 119.344 59.5909 118.985 60.029 118.668C60.4821 118.335 60.9671 118.04 61.4728 117.792C61.7221 117.669 61.9746 117.559 62.2228 117.463C62.9253 117.189 63.6578 116.998 64.399 116.896C64.7946 116.84 65.1971 116.807 65.5953 116.802C65.9834 116.795 66.3615 116.812 66.7184 116.85C69.0853 117.084 71.2809 118.184 72.9027 119.945C73.479 120.57 73.9721 121.27 74.3678 122.026C74.6415 122.548 74.8696 123.102 75.0453 123.672C75.3128 124.543 75.4553 125.448 75.4696 126.362L75.6984 140.917L56.2571 141.222L56.029 126.675ZM75.2165 126.365C75.2028 125.475 75.0634 124.594 74.8028 123.747C74.6315 123.192 74.4096 122.652 74.1427 122.144C73.7571 121.408 73.2771 120.727 72.7152 120.118C71.1359 118.402 68.9996 117.329 66.6921 117.103C66.3446 117.065 65.9765 117.05 65.599 117.056C65.2115 117.062 64.8196 117.094 64.434 117.148C63.7115 117.247 62.9984 117.433 62.314 117.7C62.0728 117.793 61.8271 117.901 61.5846 118.021C61.0928 118.263 60.6203 118.55 60.1784 118.874C59.7515 119.183 59.3471 119.532 58.9778 119.912C58.7709 120.124 58.5727 120.347 58.3877 120.576C58.0715 120.967 57.7878 121.38 57.544 121.805C57.3328 122.169 57.1428 122.555 56.9809 122.954C56.7653 123.477 56.5984 124.021 56.4846 124.572C56.4546 124.712 56.4271 124.859 56.4009 125.021C56.3134 125.557 56.2734 126.113 56.2827 126.672L56.5071 140.965L75.4409 140.668L75.2165 126.365ZM59.0309 126.627C59.0128 125.446 59.3071 124.279 59.8834 123.25C60.0402 122.97 60.219 122.697 60.414 122.442C60.7527 122 61.1478 121.6 61.5946 121.247C61.6078 121.236 61.6221 121.225 61.6327 121.217C62.0646 120.879 62.5384 120.596 63.0396 120.375C63.304 120.258 63.5665 120.161 63.8184 120.087C64.024 120.025 64.2346 119.972 64.4421 119.933C64.8265 119.854 65.2303 119.812 65.6421 119.805C66.8328 119.787 68.0084 120.084 69.0409 120.667L69.0803 120.689C69.5965 120.986 70.0684 121.347 70.4828 121.761C71.7009 122.969 72.4046 124.577 72.464 126.289C72.4665 126.332 72.4671 126.374 72.4677 126.417L72.649 137.962L59.2115 138.173L59.0309 126.627ZM72.2146 126.42C72.214 126.381 72.214 126.343 72.2115 126.297C72.154 124.65 71.4771 123.104 70.3046 121.94C69.9052 121.542 69.4515 121.195 68.9546 120.91L68.9165 120.889C67.9227 120.328 66.7921 120.041 65.6465 120.059C65.2502 120.065 64.8621 120.107 64.4915 120.182C64.2909 120.221 64.0896 120.27 63.8915 120.33C63.649 120.402 63.3971 120.495 63.1421 120.607C62.6603 120.82 62.2046 121.092 61.7853 121.42C61.7746 121.427 61.7646 121.435 61.7446 121.452C61.3221 121.786 60.9421 122.171 60.6159 122.596C60.4284 122.842 60.2565 123.104 60.1053 123.374C59.5509 124.364 59.2671 125.487 59.2853 126.624L59.4628 137.914L72.3927 137.712L72.2146 126.42Z" fill="#23164D"/>
<path d="M53.1446 133.397L53.4009 149.716C53.4215 151.012 54.4865 152.045 55.7827 152.024L76.5108 151.699C76.8427 151.693 77.1571 151.62 77.4421 151.491C77.5302 151.452 77.6158 151.405 77.6983 151.355C77.7258 151.34 77.7508 151.322 77.7765 151.304C77.8346 151.266 77.8914 151.224 77.9464 151.181C77.9839 151.149 78.0221 151.117 78.0583 151.084C78.0652 151.077 78.0727 151.071 78.0808 151.062C78.1133 151.032 78.1458 150.999 78.1765 150.968C78.209 150.935 78.2402 150.901 78.269 150.864C78.289 150.842 78.3083 150.819 78.3265 150.794C78.3415 150.775 78.3558 150.755 78.3696 150.734C78.3908 150.708 78.4096 150.682 78.4258 150.654C78.4646 150.597 78.4989 150.541 78.5321 150.481C78.5583 150.432 78.584 150.382 78.6077 150.331C78.6196 150.306 78.6302 150.279 78.6421 150.252C78.6746 150.174 78.7033 150.094 78.7271 150.012V150.011C78.7427 149.956 78.7571 149.901 78.7696 149.844C78.7746 149.816 78.7815 149.786 78.7858 149.757C78.7958 149.7 78.8033 149.642 78.8089 149.584C78.8171 149.495 78.8215 149.406 78.8196 149.316L78.5633 132.997C78.5427 131.703 77.4764 130.669 76.1802 130.69L55.4514 131.016C54.8371 131.026 54.2809 131.27 53.8696 131.665C53.414 132.099 53.134 132.717 53.1446 133.397Z" fill="white"/>
<path d="M55.7457 152.337C54.2995 152.338 53.1114 151.172 53.0889 149.72L52.8326 133.402C52.8207 132.662 53.1208 131.947 53.6551 131.438C54.1383 130.975 54.7751 130.714 55.4476 130.702L76.1764 130.377C76.8964 130.377 77.5582 130.632 78.0682 131.125C78.5782 131.619 78.8651 132.282 78.8764 132.992L79.1326 149.31C79.1339 149.41 79.1295 149.51 79.1208 149.61C79.1139 149.68 79.1058 149.745 79.0945 149.81L79.0751 149.91C79.0614 149.973 79.0458 150.033 79.0283 150.094C79.002 150.189 78.9689 150.28 78.9314 150.37L78.6083 150.329L78.8926 150.459C78.8658 150.517 78.837 150.575 78.807 150.629C78.7689 150.698 78.7289 150.764 78.6851 150.829C78.6732 150.85 78.6458 150.89 78.6133 150.929C78.6145 150.931 78.5939 150.959 78.5733 150.985C78.5552 151.01 78.5289 151.043 78.5014 151.074C78.4776 151.103 78.4401 151.145 78.4014 151.185C78.3683 151.22 78.3326 151.255 78.2964 151.289C78.2314 151.35 78.1895 151.385 78.1482 151.42C78.0801 151.474 78.0151 151.522 77.9489 151.565C77.9245 151.582 77.8895 151.605 77.852 151.627C77.7689 151.678 77.6726 151.73 77.572 151.775C77.2414 151.924 76.8864 152.004 76.5183 152.01L55.7895 152.335C55.7733 152.337 55.7595 152.337 55.7457 152.337ZM76.2195 131.002C76.2082 131.002 76.197 131.002 76.1858 131.002L55.457 131.328C54.9426 131.336 54.4558 131.536 54.0864 131.89C53.677 132.28 53.4483 132.827 53.457 133.392L53.7133 149.71C53.7308 150.82 54.6395 151.712 55.7451 151.712C55.7558 151.712 55.7664 151.712 55.777 151.712L76.5051 151.386C76.787 151.381 77.0589 151.321 77.3126 151.206C77.3901 151.172 77.4639 151.131 77.5351 151.088L77.6058 151.043C77.6558 151.01 77.7045 150.974 77.7514 150.936C77.7801 150.912 77.8145 150.884 77.847 150.854L77.952 150.75C77.9789 150.723 78.0039 150.695 78.027 150.667L78.1676 150.477C78.2007 150.429 78.2301 150.381 78.2589 150.329C78.282 150.288 78.3039 150.244 78.3239 150.2L78.6426 150.252L78.3539 150.132C78.382 150.065 78.4064 149.997 78.427 149.926C78.4401 149.877 78.4533 149.827 78.4651 149.777L78.7864 149.758L78.4783 149.704C78.487 149.654 78.4932 149.605 78.4982 149.554C78.5051 149.479 78.5089 149.401 78.5076 149.322L78.2514 133.003C78.2426 132.46 78.0233 131.953 77.6333 131.575C77.2514 131.205 76.7501 131.002 76.2195 131.002Z" fill="#23164D"/>
<path d="M63.6402 139.155C63.6202 137.88 64.6364 136.832 65.9108 136.812C67.1846 136.792 68.2339 137.809 68.2539 139.082C68.2658 139.854 67.8964 140.541 67.3214 140.969L67.3883 145.233C67.3995 145.932 66.8414 146.508 66.1427 146.519C65.4433 146.53 64.867 145.972 64.8564 145.273L64.7914 141.114C64.1145 140.719 63.6533 139.994 63.6402 139.155Z" fill="#23164D"/>
<path d="M66.6302 145.244L66.5633 140.98C67.1383 140.552 67.5076 139.865 67.4951 139.094C67.477 137.949 66.6914 137.073 65.5833 137.102C65.7008 137.058 65.7808 136.813 65.9101 136.811C67.1839 136.791 68.2333 137.808 68.2533 139.082C68.2651 139.853 67.8958 140.54 67.3208 140.968L67.3876 145.232C67.3989 145.931 66.8408 146.507 66.142 146.518C66.0102 146.52 65.8764 146.435 65.7708 146.367C66.3102 146.35 66.6389 145.812 66.6302 145.244Z" fill="white"/>
<path d="M65.7028 146.473L65.364 146.252L65.7684 146.239C66.2559 146.225 66.5115 145.717 66.504 145.246L66.4359 140.917L66.4877 140.877C67.0502 140.459 67.3796 139.792 67.369 139.095C67.3603 138.53 67.1565 138.028 66.7952 137.681C66.4721 137.372 66.0552 137.214 65.5877 137.227L64.9478 137.241L65.5396 136.981C65.5596 136.972 65.6015 136.916 65.6265 136.884C65.6928 136.795 65.7759 136.685 65.9096 136.683C67.2515 136.663 68.3603 137.737 68.3821 139.079C68.394 139.835 68.0471 140.559 67.4509 141.029L67.5165 145.229C67.5221 145.601 67.3834 145.953 67.1246 146.22C66.8652 146.488 66.5177 146.638 66.1459 146.644C66.1227 146.644 66.1003 146.643 66.0784 146.64C65.9296 146.621 65.7953 146.534 65.7028 146.473ZM65.919 136.937C65.9071 136.942 65.8878 136.963 65.8684 136.987C66.2909 137.034 66.6659 137.208 66.9703 137.499C67.3809 137.893 67.6121 138.459 67.6221 139.092C67.634 139.849 67.2871 140.573 66.6909 141.042L66.7565 145.242C66.7634 145.699 66.5627 146.184 66.1721 146.39C66.464 146.378 66.7359 146.256 66.9402 146.045C67.1515 145.826 67.2659 145.539 67.2609 145.234L67.1927 140.905L67.2446 140.866C67.8071 140.447 68.1365 139.781 68.1259 139.083C68.109 137.992 67.289 137.099 66.244 136.956C66.1384 136.942 66.0296 136.935 65.919 136.937Z" fill="#23164D"/>
<g opacity="0.22">
<path d="M62.2688 117.581L63.8563 120.208C64.4232 120.037 65.0238 119.94 65.645 119.932C66.8707 119.912 68.0238 120.23 69.0169 120.8L66.7057 116.975C66.3413 116.939 65.9719 116.923 65.5982 116.929C64.4257 116.947 63.3025 117.177 62.2688 117.581Z" fill="#E8EEF6"/>
</g>
<path d="M100.024 112.02C95.3439 106.227 88.1283 103.787 88.1283 103.787C88.1283 103.787 71.9896 99.0599 60.7039 96.1174C60.0164 95.9424 59.3433 95.7736 58.6958 95.6055C57.2089 97.8086 55.1576 102.744 53.3858 108.619C53.0945 109.588 52.8251 110.536 52.572 111.463C53.9983 111.477 55.6777 111.434 57.5145 111.356C66.9639 110.949 80.7108 109.651 87.4883 110.829C87.6364 111.64 88.7558 116.975 92.5408 116.717C92.5633 116.715 92.587 116.717 92.6095 116.715C93.0876 117.02 93.7114 117.514 93.7889 118.064C93.8539 118.522 93.3727 119.774 92.5439 121.354C91.8589 122.657 91.5552 124.097 92.6677 125.061C94.2233 126.408 96.1458 128.017 96.6458 128.187C97.5195 128.485 101.435 122.292 101.435 122.292C101.435 122.292 98.1064 129.41 98.0252 132.355C98.0045 133.111 98.8977 133.016 99.5027 132.562C102.275 130.485 104.021 121.838 104.021 121.838C104.021 121.838 104.85 117.993 100.024 112.02Z" fill="white"/>
<path d="M98.5695 133.18C98.4195 133.18 98.2751 133.152 98.1476 133.086C97.997 133.008 97.7458 132.809 97.7589 132.348C97.8083 130.561 98.9958 127.341 99.9608 125C98.6339 126.896 97.192 128.657 96.5602 128.44C96.3977 128.385 95.9045 128.218 92.4933 125.262C91.7708 124.637 91.152 123.429 92.307 121.229C93.2108 119.509 93.5702 118.419 93.5245 118.101C93.4777 117.77 93.127 117.375 92.5352 116.985C88.7933 117.217 87.5401 112.444 87.2608 111.062C82.0764 110.21 72.8945 110.752 64.7827 111.23C62.1977 111.383 59.7558 111.527 57.5252 111.623C55.5208 111.708 53.9001 111.742 52.5683 111.73L52.2227 111.727L52.3139 111.393C52.567 110.465 52.837 109.514 53.1289 108.542C54.867 102.779 56.9151 97.7654 58.4733 95.4554L58.5789 95.2986L58.762 95.3461C59.2001 95.4605 59.6495 95.5742 60.1076 95.6904L60.7689 95.8586C71.9308 98.768 88.0408 103.482 88.2027 103.53C88.2858 103.558 95.5564 106.066 100.231 111.851C105.081 117.855 104.317 121.732 104.282 121.893C104.211 122.247 102.484 130.661 99.662 132.775C99.3658 132.999 98.9476 133.18 98.5695 133.18ZM101.21 122.15L101.677 122.405C101.644 122.476 98.3714 129.507 98.2933 132.363C98.2876 132.557 98.3645 132.597 98.3933 132.612C98.5633 132.7 98.9758 132.624 99.3439 132.349C102.003 130.356 103.743 121.87 103.76 121.785C103.769 121.745 104.487 117.969 99.8164 112.188C95.2376 106.522 88.1139 104.064 88.0426 104.04C87.8914 103.996 71.7889 99.2836 60.6358 96.3761L59.977 96.2086C59.582 96.1086 59.1933 96.0104 58.8127 95.9117C57.3152 98.2198 55.2995 103.196 53.6408 108.696C53.3851 109.545 53.1464 110.38 52.9214 111.198C54.1689 111.197 55.6795 111.166 57.5033 111.089C59.7289 110.994 62.1689 110.849 64.752 110.697C72.9883 110.211 82.3239 109.66 87.5345 110.566L87.7177 110.599L87.7514 110.782C87.862 111.388 88.9289 116.696 92.5233 116.45L92.6114 116.445L92.7545 116.49C93.5439 116.994 93.9814 117.511 94.0539 118.025C94.1539 118.73 93.2989 120.49 92.7808 121.477C91.9839 122.994 92.0051 124.132 92.8439 124.858C95.8514 127.463 96.5652 127.876 96.7327 127.934C97.247 127.908 99.4633 124.912 101.21 122.15ZM92.5414 116.717L92.5476 116.813L92.5645 116.787L92.5414 116.717Z" fill="#23164D"/>
<path d="M93.0913 125.295L96.6288 119.02C96.6288 119.02 94.9076 123.401 93.0913 125.295Z" fill="#23164D"/>
<path d="M94.8633 126.943L99.6745 120.061C99.6745 120.061 96.8539 125.233 94.8633 126.943Z" fill="#23164D"/>
<path d="M22.6357 97.3691C23.5007 93.7497 29.1675 88.9041 37.5213 88.4847C45.875 88.0654 71.4038 88.5078 76.9657 89.761C76.9657 89.761 82.5701 104.13 74.9194 117.552C74.9194 117.552 45.7894 115.684 37.9438 114.884C25.5432 113.62 20.1576 107.741 22.6357 97.3691Z" fill="#23164D"/>
<path d="M61.7002 88.9129C54.1539 88.4548 47.6727 88.3267 42.4358 88.5311L42.4102 87.9054C47.6683 87.6992 54.1702 87.8279 61.7377 88.2879L61.7002 88.9129Z" fill="white"/>
<path d="M77.5044 112.595L76.9082 112.404C80.7613 100.4 77.2563 91.2629 76.7425 90.0329C74.985 89.6654 71.6175 89.4279 71.5825 89.4254L71.6263 88.8004C71.7744 88.811 75.2825 89.0579 77.0357 89.456L77.1857 89.4904L77.2507 89.6304C77.2957 89.7273 81.7032 99.5154 77.5044 112.595Z" fill="white"/>
<path d="M104.076 166.474C112.488 166.474 119.306 159.655 119.306 151.244C119.306 142.832 112.488 136.014 104.076 136.014C95.6649 136.014 88.8462 142.832 88.8462 151.244C88.8462 159.655 95.6649 166.474 104.076 166.474Z" fill="white"/>
<path d="M104.076 166.786C95.5063 166.786 88.5344 159.814 88.5344 151.244C88.5344 142.674 95.5063 135.702 104.076 135.702C112.646 135.702 119.618 142.674 119.618 151.244C119.618 159.814 112.646 166.786 104.076 166.786ZM104.076 136.326C95.8513 136.326 89.1594 143.018 89.1594 151.243C89.1594 159.469 95.8513 166.16 104.076 166.16C112.301 166.16 118.993 159.469 118.993 151.243C118.993 143.018 112.301 136.326 104.076 136.326Z" fill="#23164D"/>
<path d="M104.966 150.053C102.501 149.099 101.454 148.431 101.454 147.116C101.454 146.06 102.273 144.875 104.454 144.875C106.273 144.875 107.433 145.467 108.026 145.78L108.735 144.079C107.914 143.641 106.758 143.227 105.051 143.175V140.677H103.269V143.255C100.689 143.641 99.0169 145.263 99.0169 147.4C99.0169 149.639 100.801 150.85 103.688 151.881C105.794 152.656 106.894 153.529 106.894 154.945C106.894 156.412 105.538 157.471 103.492 157.471C101.936 157.471 100.464 156.982 99.4701 156.362L98.7888 158.09C99.7794 158.732 101.454 159.196 103.094 159.221V161.822H104.878V159.143C107.798 158.706 109.363 156.8 109.363 154.739C109.363 152.447 107.888 151.133 104.966 150.053Z" fill="#23164D"/>
</svg>
