<svg width="206" height="186" viewBox="0 0 206 186" fill="none" xmlns="http://www.w3.org/2000/svg">
<path d="M186.996 105.152C193.748 136.387 149.819 196.554 83.3531 184.366C38.9431 176.223 84.2562 144.569 22.795 105.152C-13.9906 81.5599 41.4831 -25.3501 101.214 51.9268C128.814 87.6337 178.431 65.5268 186.996 105.152Z" fill="#F4D933"/>
<path d="M102.743 52.2344L103.367 52.2063V1.02502L102.743 1.05315V52.2344Z" fill="#23164D"/>
<path d="M66.6861 63.095C66.6861 63.095 77.2518 71.2194 78.9155 73.1381C82.5911 77.3788 80.5443 88.6556 75.2243 88.43C69.9043 88.2044 59.6855 83.5163 53.018 76.9831C46.3505 70.45 57.2336 56.7325 66.6861 63.095Z" fill="#23164D"/>
<path d="M73.7242 69.18L66.4055 63.5557L66.6811 63.1969L73.8874 68.7694L73.7242 69.18Z" fill="white"/>
<path d="M38.6805 52.7807C36.4524 54.8394 34.5962 58.075 37.9455 64.6469C41.2949 71.2188 51.6799 80.7538 60.9849 86.4432C60.9849 86.4432 74.6049 76.7882 72.5049 65.2707C72.5049 65.2707 56.6693 54.8675 51.263 51.9832C45.8568 49.1 41.1374 50.5094 38.6805 52.7807Z" fill="#23164D"/>
<path d="M57.7693 75.1244C57.7049 75.1526 51.2681 77.8594 46.1899 72.0613L46.5312 71.7626C51.3868 77.3063 57.5281 74.7357 57.5893 74.7088L57.7693 75.1244Z" fill="white"/>
<path d="M66.6099 81.8169C63.9586 84.8482 61.3005 86.7132 61.263 86.7388L61.1674 86.8051L61.0574 86.7657C60.9193 86.7163 47.1805 81.6932 40.3743 71.8063L40.7474 71.5494C47.1493 80.8488 59.7849 85.8026 61.0999 86.2988C61.8093 85.7844 66.3024 82.4132 69.1393 77.5882L69.5299 77.8176C68.6599 79.2994 67.6355 80.6451 66.6099 81.8169Z" fill="white"/>
<path d="M57.2193 59.705C61.4524 68.775 67.7849 125.462 71.5418 129.266C71.5418 129.266 66.6987 133.429 56.7568 132.656C41.2662 131.453 31.6012 136.79 18.6437 132.801C12.3718 104.21 9.54306 64.2938 19.1962 56.0069C29.0143 47.5775 49.533 43.2375 57.2193 59.705Z" fill="#23164D"/>
<path d="M65.9311 94.7437L66.3417 94.5943C66.3204 94.5343 64.1629 88.5624 63.3811 83.2874C62.5936 77.9756 57.8661 61.7949 57.8186 61.6324L57.3979 61.7556C57.4461 61.9175 62.1655 78.0693 62.9486 83.3525C63.7374 88.6712 65.9092 94.6837 65.9311 94.7437Z" fill="white"/>
<path d="M41.5192 56.9293C44.7799 56.0125 45.578 52.5912 45.6099 52.4456L45.183 52.3506C45.1749 52.3837 44.4055 55.6631 41.4011 56.5075L41.5192 56.9293Z" fill="white"/>
<path d="M13.6706 107.728L13.2737 107.789C9.96871 86.3994 11.52 73.6131 13.4031 66.6537C15.4544 59.0731 18.2631 56.6075 18.3825 56.5056L18.6431 56.8106C18.53 56.9081 7.38121 67.0237 13.6706 107.728Z" fill="white"/>
<path d="M49.5594 29.1382C49.3869 23.7651 40.1875 20.5076 36.3288 22.7038C32.4694 24.8995 32.785 32.587 32.785 32.587C30.6288 32.507 29.1882 33.8482 29.3607 35.9982C29.595 38.9195 32.0688 40.1663 32.0688 40.1663C31.775 48.0888 30.9794 51.1163 30.9794 51.1163C30.9794 51.1163 35.2263 55.7307 41.6538 54.7795C45.7719 54.1701 43.2294 51.1163 43.2294 51.1163C43.0438 48.9257 43.1832 46.9563 43.1832 46.9563C50.8044 46.9563 51.2763 36.7688 50.0769 34.4026C49.1375 32.547 49.62 30.9982 49.5594 29.1382Z" fill="#23164D"/>
<path d="M38.8413 30.9839C38.9276 31.0001 40.9976 31.382 42.927 29.8714C42.9901 29.8226 43.0007 29.7314 42.952 29.6689C42.9251 29.6345 42.8863 29.6157 42.8457 29.6139C42.812 29.612 42.7782 29.622 42.7495 29.6445C40.9263 31.0707 38.9157 30.7045 38.8963 30.7007C38.8113 30.6839 38.742 30.737 38.727 30.8151C38.712 30.8932 38.7632 30.9689 38.8413 30.9839Z" fill="#23164D"/>
<path d="M48.8769 30.9432C48.8769 30.9432 48.8669 30.9432 48.8625 30.9432C47.1344 30.9432 45.6863 30.0251 45.6725 30.0157C45.6063 29.9744 45.5169 29.9919 45.4732 30.0588C45.4301 30.1257 45.4494 30.2151 45.5163 30.2576C45.5775 30.2976 47.0469 31.2319 48.8625 31.2319C48.9469 31.2313 49.0219 31.1713 49.0219 31.0876C49.0207 31.0076 48.9563 30.9432 48.8769 30.9432Z" fill="#23164D"/>
<path d="M46.0882 36.7013C45.6876 36.6719 45.2682 36.9544 44.8501 37.54C44.8038 37.605 44.8188 37.695 44.8838 37.7413C44.9094 37.7594 44.9382 37.7682 44.9682 37.7682C45.0126 37.7682 45.0569 37.7469 45.0851 37.7075C45.4357 37.2175 45.782 36.9688 46.0676 36.9888C46.4057 37.0119 46.6076 37.3869 46.6101 37.3913C46.6469 37.4613 46.7332 37.4888 46.8045 37.4519C46.8757 37.415 46.9026 37.3282 46.8663 37.2569C46.8538 37.2357 46.5888 36.7363 46.0882 36.7013Z" fill="#23164D"/>
<path d="M43.2737 46.8113C43.2056 46.8095 36.4037 46.5576 33.8306 41.6613C33.7937 41.5907 33.7056 41.5638 33.6356 41.6001C33.5656 41.6376 33.5381 41.7245 33.575 41.7957C36.2275 46.8426 43.1962 47.0976 43.2656 47.1001H43.2694C43.3475 47.1001 43.4119 47.0376 43.4137 46.9595C43.4162 46.8801 43.3537 46.8138 43.2737 46.8113Z" fill="#23164D"/>
<path d="M31.5269 37.5851C31.1807 37.4058 30.9363 37.0651 30.7994 36.572C30.5132 35.5464 30.9344 34.6201 31.4976 34.2358C31.8819 33.9733 32.3044 33.9745 32.6576 34.2389L32.8301 34.0076C32.3788 33.6701 31.8207 33.6664 31.3338 33.9976C30.6857 34.4401 30.1988 35.4939 30.52 36.6495C30.6794 37.2226 30.9732 37.6239 31.3925 37.8408C31.6625 37.9814 31.9438 38.0239 32.1863 38.0239C32.5507 38.0239 32.8269 37.9276 32.8457 37.9214L32.7488 37.6489C32.7444 37.6514 32.0907 37.8783 31.5269 37.5851Z" fill="#23164D"/>
<path d="M31.4438 35.6164C31.2157 35.4183 31.1219 35.0608 31.1657 34.5545L30.8776 34.5302C30.8269 35.1333 30.9532 35.572 31.2551 35.8345C31.4969 36.0445 31.7945 36.0902 32.0082 36.0902C32.1632 36.0902 32.2738 36.0658 32.2832 36.0633L32.2194 35.7827C32.2144 35.7833 31.7532 35.8852 31.4438 35.6164Z" fill="#23164D"/>
<path d="M44.9768 32.817C44.9768 32.817 46.278 35.6076 48.418 32.3132L44.9768 32.817Z" fill="white"/>
<path d="M42.5738 32.817C42.5738 32.817 41.2726 35.6076 39.1326 32.3132L42.5738 32.817Z" fill="white"/>
<path d="M41.4944 39.1114C41.4944 39.1114 44.7044 42.1745 48.4181 38.7758C48.4181 38.7758 45.0819 46.1195 41.4944 39.1114Z" fill="white"/>
<path d="M32.0256 25.5482C31.9087 26.9869 31.6187 27.8538 31.975 28.3182C32.3306 28.7813 48.3418 30.1231 50.3225 28.1944C51.0312 27.5044 50.4625 24.8488 50.0968 24.2825C49.7312 23.7169 48.8337 24.4063 45.52 24.6594C42.2062 24.9125 34.9331 24.9025 33.7306 24.4838C32.5275 24.065 32.0762 24.9257 32.0256 25.5482Z" fill="#23164D"/>
<path d="M33.0613 24.4663C33.0613 24.4663 35.2406 19.0232 41.32 19.0363C47.3994 19.0494 49.0519 23.4082 49.4856 24.5194L40.9532 26.5363C40.9532 26.5363 36.1831 25.9188 35.9538 25.8569C35.7231 25.795 33.0613 24.4663 33.0613 24.4663Z" fill="#23164D"/>
<path d="M40.3694 25.0851C41.755 25.0851 43.2038 25.0257 44.5882 24.8657L44.5538 24.5726C39.32 25.1782 33.1425 24.3282 33.0813 24.3201L33.0413 24.6119C33.0869 24.6188 36.4769 25.0851 40.3694 25.0851Z" fill="white"/>
<path d="M45.9906 24.2225L46.2849 24.215C46.218 21.4656 43.9362 19.9131 43.8393 19.8488L43.6755 20.0944C43.698 20.1094 45.9262 21.6288 45.9906 24.2225Z" fill="white"/>
<path d="M41.7404 23.9025L42.0311 23.8525C41.7573 22.2519 41.9973 20.1344 41.9998 20.1131L41.7067 20.0787C41.6967 20.1675 41.4592 22.26 41.7404 23.9025Z" fill="white"/>
<path d="M36.6905 23.7963C37.5836 21.1025 39.193 20.325 39.2086 20.3182L39.0842 20.0507C39.0136 20.0838 37.343 20.8907 36.4111 23.7038L36.6905 23.7963Z" fill="white"/>
<path d="M111.305 0C101.392 0.223125 90.8294 3.81062 84.7707 12.0462C82.7769 14.795 81.2981 17.7894 79.8413 20.78C74.2494 32.8287 69.9331 45.3719 65.6275 57.9075C60.3431 73.4656 55.1869 89.4181 51.1132 105.359C48.625 114.973 46.2907 124.617 44.3738 134.367L44.6763 134.447C48.7257 122.537 53.0119 108.71 56.7081 96.6475C62.45 77.6937 67.5607 58.5438 74.1207 39.8456C77.4875 30.6369 80.5119 21.0569 85.7163 12.7187C89.4188 7.31687 95.3513 3.78062 101.592 1.96125C104.741 1.03625 108.018 0.441249 111.303 0.311874L111.305 0Z" fill="#23164D"/>
<path d="M72.5544 39.6462C72.5657 39.6562 73.4807 41.8262 73.5144 41.8662C73.7144 39.8993 71.9063 35.3356 74.0401 35.4706C74.0401 35.4706 76.0757 43.3843 76.4032 44.7368C76.7457 45.7118 79.0944 51.515 79.1013 52.8506C79.9551 56.795 83.8 74.7418 83.79 78.0068C83.7582 88.6712 74.5669 90.5793 70.9282 82.9781C66.8757 74.5137 73.6432 57.8225 73.5557 52.2743C71.7432 50.7318 71.5051 48.8431 71.1913 48.3706C70.6801 47.6481 70.4763 47.6375 70.2632 48.3562C71.0394 50.68 69.4582 50.9212 68.8825 48.5543C68.445 46.7512 69.1057 46.4331 70.8919 45.8481C71.2357 45.8087 71.1794 45.4668 70.9088 45.4075C70.225 45.2575 69.3232 44.7012 69.1088 44.7731C67.4219 45.34 69.2013 46.5975 68.0282 47.6087C67.7544 47.9743 67.1063 46.3143 66.8819 45.8118C66.4088 44.7531 68.312 43.0293 68.5232 43.005C70.5526 42.7731 71.7026 43.1687 71.7301 43.1725C71.4526 42.4631 70.8782 40.8731 70.5719 40.6231C69.4388 39.6987 67.6938 38.9787 67.5519 38.6431C66.6276 36.4493 71.655 38.8281 72.5544 39.6462Z" fill="#23164D"/>
<path d="M45.2938 101.394C43.4757 97.9231 42.6232 96.5718 37.7601 97.1356C35.8888 97.3524 34.1926 97.8256 32.8107 98.3249C32.5451 98.1649 32.265 97.9987 31.9782 97.8293C31.9313 97.7918 31.8813 97.7606 31.825 97.7381C31.8232 97.7368 31.8207 97.7356 31.8182 97.7349C28.9144 96.0243 25.0494 93.8806 21.7313 92.0793C20.6538 91.4131 19.5725 90.7474 18.5013 90.1049C20.5319 86.1512 30.2794 70.4206 30.2794 70.4206C34.4532 60.0706 19.0994 52.4324 14.1957 60.1481C9.29193 67.8637 -0.633706 89.6662 0.231294 94.8093C0.324419 95.3618 0.543157 95.8474 0.851907 96.2756C1.51941 97.7412 3.01567 99.0562 5.65755 99.9599C13.0675 102.494 29.1951 104.156 31.1957 104.355C31.5088 104.427 31.8007 104.5 32.0675 104.574C32.1825 104.606 32.2994 104.609 32.4144 104.597C32.5057 104.615 32.5951 104.614 32.6801 104.589C33.8488 104.254 34.4763 104.159 34.8732 104.232C36.7925 104.588 38.1207 103.691 38.9907 102.638C39.0844 103.205 39.1651 103.759 39.1694 104.213C39.1826 105.701 40.0675 107.176 40.7475 107.279C41.4288 107.383 41.3875 104.869 41.3875 104.869C41.3875 104.869 41.6432 108.538 43 107.286C44.3569 106.034 42.9344 102.481 42.225 101.09C42.1425 100.927 42.0575 100.78 41.9732 100.641C42.7307 101.343 43.4407 102.401 43.8657 102.782C44.5932 103.434 47.1119 104.866 45.2938 101.394Z" fill="#23164D"/>
<path d="M42.4725 107.779C42.6594 107.779 42.8925 107.704 43.1594 107.457C44.4175 106.297 43.5606 103.591 42.9244 102.054C42.9419 102.076 42.9594 102.098 42.9769 102.119C43.2619 102.471 43.5087 102.775 43.71 102.955C44.0087 103.224 45.345 104.209 45.945 103.743C46.36 103.421 46.2231 102.663 45.5013 101.285C43.645 97.7419 42.6987 96.3232 37.7331 96.9019C36.1287 97.0875 34.4813 97.4794 32.8363 98.0657C32.5988 97.9225 32.3506 97.7757 32.0969 97.6263C32.0537 97.5894 31.9844 97.5488 31.9119 97.5194C28.5506 95.5369 24.1594 93.13 21.8431 91.8725C20.8394 91.2507 19.8212 90.6244 18.8106 90.0163C21.0169 85.8188 30.3825 70.6975 30.4781 70.5425L30.08 70.2957C29.9825 70.4532 20.3038 86.0794 18.2925 89.9963L18.1925 90.1913L18.3806 90.3044C19.4512 90.9463 20.5312 91.6113 21.6081 92.2775C23.9331 93.54 28.3187 95.9438 31.6994 97.9357L31.7469 97.9575C31.7856 97.9769 31.8087 97.9925 31.8331 98.0119C32.1456 98.1988 32.425 98.365 32.69 98.5244L32.7856 98.5819L32.8906 98.5438C34.5369 97.9482 36.1844 97.5525 37.7869 97.3663C42.6275 96.8069 43.3462 98.1813 45.0863 101.501C45.9375 103.128 45.6694 103.363 45.6575 103.372C45.4694 103.52 44.5681 103.095 44.0231 102.604C43.8494 102.449 43.6137 102.159 43.3406 101.823C42.9794 101.376 42.5694 100.871 42.1325 100.466L40.8856 99.3107L41.7738 100.761C41.855 100.894 41.9369 101.036 42.0169 101.193C42.8181 102.764 44.0212 106.022 42.8419 107.11C42.6606 107.277 42.5112 107.338 42.3962 107.293C41.9681 107.124 41.6856 105.762 41.6219 104.849L41.1538 104.869C41.1675 105.753 41.04 106.831 40.8094 107.032C40.26 106.965 39.4163 105.634 39.4038 104.208C39.3994 103.729 39.3131 103.151 39.2219 102.596L39.1375 102.088L38.81 102.485C37.7475 103.771 36.4356 104.281 34.9162 103.998C34.4712 103.916 33.8044 104.02 32.6156 104.361C32.5694 104.374 32.5181 104.374 32.4594 104.364L32.4263 104.357L32.3919 104.361C32.2925 104.37 32.2063 104.365 32.13 104.344C31.86 104.27 31.5656 104.197 31.2494 104.123C29.3913 103.936 13.1463 102.269 5.73376 99.735C3.33938 98.9157 1.76874 97.7182 1.06499 96.1757C0.739987 95.7175 0.544994 95.2569 0.462494 94.7675L0 94.8457C0.095 95.4063 0.318123 95.9325 0.662498 96.41C1.39812 98.0357 3.06125 99.3163 5.5825 100.178C13.045 102.73 29.34 104.403 31.1731 104.585C31.4531 104.652 31.7419 104.724 32.0056 104.796C32.1275 104.831 32.26 104.841 32.4044 104.831C32.5231 104.848 32.6375 104.843 32.745 104.812C33.8412 104.498 34.4625 104.392 34.8306 104.46C36.3513 104.739 37.7263 104.292 38.8356 103.158C38.8906 103.534 38.9319 103.9 38.935 104.213C38.9481 105.713 39.8456 107.376 40.7125 107.508C40.8606 107.529 41 107.489 41.1181 107.386C41.2825 107.242 41.3931 106.966 41.4694 106.645C41.6306 107.145 41.87 107.589 42.2237 107.729C42.2931 107.759 42.3769 107.779 42.4725 107.779Z" fill="white"/>
<path d="M50.6544 113.013C56.2431 108.876 57.2694 100.601 58.2613 92.5987C59.0163 86.5074 59.73 80.7543 62.46 77.6237C68.0212 71.2443 68.7313 62.8262 69.3581 55.3987C69.7913 50.2612 70.1656 45.8256 72.1369 43.3493C75.9425 38.5718 78.9993 30.9606 82.2356 22.9024C83.1375 20.6549 84.0712 18.3306 85.0131 16.0987C89.1075 6.39245 102.904 1.67557 103.043 1.62932L102.846 1.0387C102.703 1.0862 88.6425 5.88995 84.4375 15.8581C83.4937 18.0949 82.5594 20.4206 81.6556 22.6706C78.4375 30.6856 75.3969 38.2562 71.6487 42.9618C69.5587 45.5849 69.1769 50.1087 68.735 55.3462C68.1169 62.6787 67.4162 70.9893 61.9881 77.2137C59.1331 80.4881 58.4081 86.3337 57.6406 92.5218C56.665 100.394 55.6556 108.533 50.2812 112.511L50.6544 113.013Z" fill="#23164D"/>
<path d="M59.6279 185.453H80.6329L88.2517 145.775C89.473 139.415 84.5986 133.516 78.1223 133.516C73.1761 133.516 68.9248 137.027 67.9923 141.885L59.6279 185.453Z" fill="white"/>
<path d="M80.8874 185.761H59.2549L59.3249 185.396L67.6899 141.827C68.6499 136.833 73.0368 133.208 78.1218 133.208C81.3005 133.208 84.2849 134.613 86.3112 137.064C88.3349 139.514 89.153 142.711 88.5536 145.833L80.8874 185.761ZM59.9999 185.146H80.3799L87.9499 145.718C88.5142 142.776 87.7437 139.765 85.8362 137.456C83.928 135.148 81.1161 133.823 78.1218 133.823C73.3311 133.823 69.198 137.238 68.2937 141.943L59.9999 185.146Z" fill="#23164D"/>
<path d="M80.9312 176.589L80.0893 176.427L86.0556 145.353C86.5106 142.978 85.8881 140.548 84.3493 138.684C82.81 136.821 80.5406 135.752 78.1224 135.752C74.2556 135.752 70.92 138.509 70.19 142.306L66.6256 160.873L65.7837 160.71L69.3487 142.145C70.155 137.945 73.8456 134.896 78.1224 134.896C80.7962 134.896 83.3074 136.078 85.0106 138.139C86.7137 140.201 87.4006 142.888 86.8975 145.515L80.9312 176.589Z" fill="#23164D"/>
<path d="M119.769 181.914H64.1375V185.453H119.769V181.914Z" fill="white"/>
<path d="M120.076 185.761H63.8293V181.606H120.076V185.761ZM64.4444 185.146H119.46V182.221H64.4444V185.146Z" fill="#23164D"/>
<path d="M119.769 181.484H74.1399V182.341H119.769V181.484Z" fill="#23164D"/>
<path d="M146.577 169.834H26.6492C23.4492 169.834 20.7661 167.416 20.4323 164.233L12.8448 91.7887C12.4592 88.0987 15.3523 84.8868 19.0623 84.8868H138.99C142.19 84.8868 144.874 87.3037 145.207 90.4868L152.795 162.932C153.181 166.621 150.288 169.834 146.577 169.834Z" fill="white"/>
<path d="M146.577 170.113H26.6492C23.2961 170.113 20.5036 167.598 20.153 164.262L12.5655 91.8175C12.3736 89.98 12.9724 88.1381 14.2092 86.7656C15.4461 85.3931 17.2149 84.6056 19.0624 84.6056H138.99C142.344 84.6056 145.137 87.1206 145.486 90.4569L153.074 162.901C153.266 164.739 152.668 166.58 151.431 167.952C150.194 169.325 148.425 170.113 146.577 170.113ZM19.063 85.1668C17.3742 85.1668 15.7574 85.8862 14.6267 87.1412C13.4955 88.3962 12.948 90.0793 13.1243 91.76L20.7117 164.204C21.0317 167.254 23.5842 169.553 26.6499 169.553H146.578C148.267 169.553 149.885 168.834 151.015 167.578C152.146 166.323 152.693 164.64 152.516 162.961L144.929 90.5156C144.61 87.4662 142.057 85.1662 138.99 85.1662H19.063V85.1668Z" fill="#23164D"/>
<path d="M22.795 105.152C21.675 104.434 20.6419 103.637 19.6907 102.771L25.7838 160.947H60.0569C58.1294 146.542 56.9319 127.045 22.795 105.152Z" fill="white"/>
<path d="M139.548 94.0143C139.378 92.4006 138.027 91.1843 136.405 91.1843H21.9838C21.0775 91.1843 20.2444 91.5556 19.6369 92.2287C19.0307 92.9025 18.7482 93.7706 18.8425 94.6725L19.6907 102.771C20.6419 103.636 21.675 104.433 22.795 105.152C56.9319 127.045 58.1294 146.542 60.0569 160.947H146.557L139.548 94.0143Z" fill="#F4D933"/>
<path d="M146.903 161.26H25.5018L18.5318 94.705C18.4281 93.7143 18.7387 92.7606 19.4049 92.0193C20.0724 91.2787 20.9887 90.8718 21.9837 90.8718H136.404C138.187 90.8718 139.672 92.2087 139.857 93.9818L146.903 161.26ZM26.0649 160.635H146.21L139.237 94.0468C139.084 92.5931 137.867 91.4962 136.405 91.4962H21.9837C21.1674 91.4962 20.4162 91.8306 19.8687 92.4375C19.3224 93.045 19.068 93.8268 19.1524 94.6393L26.0649 160.635Z" fill="#23164D"/>
<path d="M146.577 167.549H26.6498C26.5155 167.549 26.3836 167.543 26.2517 167.53L26.3373 166.677C26.4405 166.688 26.5442 166.692 26.6498 166.692H146.577C147.469 166.692 148.289 166.326 148.889 165.663C149.485 165.001 149.764 164.145 149.672 163.257L142.084 90.8131C141.917 89.2243 140.588 88.0262 138.99 88.0262V87.1693C141.029 87.1693 142.725 88.6974 142.936 90.7243L150.524 163.168C150.642 164.301 150.287 165.391 149.526 166.236C148.762 167.084 147.715 167.549 146.577 167.549Z" fill="#23164D"/>
<mask id="mask0_1_673" style="mask-type:luminance" maskUnits="userSpaceOnUse" x="6" y="47" width="200" height="139">
<path d="M205.733 185.761H6.75879V55.5144L205.733 47.1V185.761Z" fill="white"/>
</mask>
<g mask="url(#mask0_1_673)">
<path d="M114.564 79.1812C112.271 72.3631 109.703 65.635 106.801 59.0487C105.773 56.7462 104.726 54.4587 103.551 52.22L102.926 52.4068C103.436 57.4112 104.331 62.3662 105.295 67.2925C106.249 72.105 108.278 76.415 109.45 81.1856C110.001 83.4731 112.076 94.8781 111.844 98.3125C111.358 106.469 106.649 109.986 103.189 112.485C100.133 114.692 95.152 115.202 94.0283 115.274C86.5226 115.835 81.8976 113.801 79.3045 106.389C78.7145 104.706 78.1901 102.945 77.7714 101.147C79.3076 102.107 80.8495 102.016 80.8495 102.016C76.2239 99.685 77.0576 88.5006 77.0576 88.5006C77.0576 88.5006 75.487 92.7431 75.257 93.9837C74.2495 99.615 74.3314 103.667 76.3176 109.146C79.3882 117.441 86.847 120.413 95.1945 120.148C102.05 119.999 108.315 117.1 112.246 111.361C115.796 106.228 117.261 99.8825 117.194 93.7025C117.151 88.7587 116.138 83.8525 114.564 79.1812Z" fill="#F4D933"/>
<path d="M87.9282 119.715C82.1845 118.265 78.0689 114.683 76.0551 109.244C74.1701 104.046 73.8888 100.04 74.9813 93.935C75.2138 92.6831 76.7307 88.5775 76.7957 88.4038L77.4857 86.5413L77.3382 88.5213C77.3301 88.6313 76.5714 99.5456 80.977 101.766L81.9057 102.234L80.8676 102.296C80.8089 102.299 79.5751 102.364 78.1932 101.698C78.5676 103.213 79.0301 104.757 79.5707 106.297C81.9695 113.153 86.0164 115.591 94.0089 114.995C94.5989 114.957 99.8463 114.556 103.026 112.258C106.233 109.941 111.081 106.44 111.566 98.2956C111.796 94.8881 109.731 83.5494 109.179 81.2506C108.656 79.1219 107.948 77.0469 107.264 75.04C106.422 72.5694 105.551 70.0163 105.021 67.3463C104.096 62.62 103.169 57.5425 102.649 52.4344L102.626 52.2038L103.693 51.885L103.8 52.0888C104.991 54.3575 106.071 56.7194 107.059 58.9338C109.844 65.2538 112.459 72.0363 114.832 79.0906C116.547 84.1831 117.436 89.0988 117.476 93.7C117.528 98.4575 116.703 105.411 112.478 111.52C108.653 117.104 102.517 120.268 95.202 120.428C92.5564 120.513 90.1226 120.269 87.9282 119.715ZM76.7151 90.2794C76.2495 91.6 75.6632 93.33 75.532 94.0356C74.4601 100.029 74.7345 103.959 76.5807 109.051C80.032 118.371 88.6039 120.078 95.1851 119.868C102.318 119.713 108.294 116.636 112.015 111.203C116.156 105.215 116.964 98.3831 116.914 93.7063C116.874 89.1638 115.994 84.3075 114.299 79.2713V79.2706C111.931 72.2313 109.322 65.4663 106.545 59.1619C105.591 57.0238 104.552 54.7469 103.409 52.555L103.228 52.6094C103.751 57.6175 104.661 62.5969 105.569 67.2388C106.092 69.8713 106.957 72.4069 107.793 74.86C108.482 76.8781 109.193 78.965 109.722 81.1194C110.28 83.4363 112.358 94.875 112.124 98.3325C111.623 106.739 106.646 110.334 103.354 112.713C100.046 115.103 94.6513 115.516 94.047 115.556C85.857 116.168 81.5089 113.539 79.0414 106.483C78.4214 104.716 77.9026 102.942 77.4995 101.213L77.3451 100.551L77.9207 100.911C78.5951 101.331 79.272 101.541 79.8032 101.643C77.0226 99.2088 76.692 93.2856 76.7151 90.2794Z" fill="#23164D"/>
<path d="M52.2506 119.111L65.7915 148.702L113.136 127.037L99.5955 97.4458L52.2506 119.111Z" fill="#23164D"/>
<path d="M84.0464 126.023L52.2483 119.101L65.7896 148.693L113.135 127.026L99.5939 97.4344L84.0464 126.023Z" fill="white"/>
<path d="M65.7895 149.005C65.7526 149.005 65.7158 148.999 65.6808 148.986C65.6026 148.957 65.5402 148.898 65.5058 148.823L51.9645 119.231C51.9151 119.123 51.9308 118.997 52.0051 118.905C52.0795 118.813 52.1983 118.771 52.3151 118.796L83.8839 125.668L99.3195 97.285C99.3764 97.1807 99.4858 97.1088 99.6051 97.1219C99.7226 97.1257 99.8289 97.1963 99.8789 97.3044L113.42 126.896C113.491 127.053 113.423 127.239 113.266 127.311L65.9201 148.978C65.8783 148.996 65.8345 149.005 65.7895 149.005ZM52.7926 119.539L65.9439 148.279L112.721 126.873L99.5701 98.1332L84.3208 126.173C84.2545 126.295 84.1176 126.357 83.9795 126.329L52.7926 119.539Z" fill="#23164D"/>
<path d="M81.4669 120.386L112.356 127.11L66.3625 148.157L81.4669 120.386Z" fill="white"/>
<path d="M81.5963 120.668L111.575 127.194L66.9369 147.621L81.5963 120.668ZM81.3382 120.104L65.79 148.692L113.136 127.026L81.3382 120.104Z" fill="#23164D"/>
<path d="M52.8657 119.086L99.1813 97.8964L87.4732 133.518L52.8657 119.086Z" fill="white"/>
<path d="M98.7682 98.3582L87.3213 133.185L53.4851 119.074L98.7682 98.3582ZM99.5945 97.4344L52.2463 119.096L87.6251 133.849L99.5945 97.4344Z" fill="#23164D"/>
<path d="M87.669 116.084C87.8534 117.258 87.0515 118.364 85.8772 118.548C85.6747 118.579 85.4721 118.579 85.2777 118.559C84.8784 118.393 84.4821 118.216 84.099 118.018C80.6553 116.29 77.9003 113.429 76.3165 109.145C74.334 103.669 74.2496 99.6163 75.2546 93.9838C75.4759 92.7826 76.9578 88.7651 77.0528 88.512C77.0284 88.8838 76.304 99.7257 80.8521 102.016C80.8521 102.016 79.3053 102.107 77.7715 101.15C78.1928 102.946 78.7177 104.709 79.3077 106.39C80.7609 110.539 82.8471 113.002 85.7221 114.274C86.0777 114.425 86.4409 114.56 86.8171 114.678C87.2571 115.008 87.5778 115.498 87.669 116.084Z" fill="#F4D933"/>
<path d="M85.2077 118.833L85.1702 118.818C84.7021 118.624 84.3208 118.448 83.9696 118.266C80.2396 116.396 77.5752 113.359 76.0527 109.243C74.1702 104.041 73.8896 100.035 74.9783 93.9344C75.2114 92.6732 76.7746 88.4551 76.7902 88.4138L77.4583 86.6276L77.3321 88.5319C77.3021 88.9819 76.6483 99.5863 80.9777 101.766L81.9083 102.235L80.8683 102.297C80.8089 102.3 79.5708 102.363 78.1921 101.702C78.5696 103.219 79.0327 104.763 79.5714 106.299C80.9708 110.294 82.9615 112.748 85.8346 114.019C86.1915 114.171 86.5414 114.3 86.9002 114.412L86.9852 114.454C87.5058 114.845 87.8465 115.409 87.9458 116.043C88.0471 116.684 87.8921 117.328 87.5102 117.853C87.1271 118.38 86.5627 118.725 85.9215 118.826C85.709 118.859 85.4821 118.864 85.2483 118.839L85.2077 118.833ZM76.714 90.2744C76.2365 91.6282 75.6565 93.3494 75.5302 94.0344C74.4609 100.024 74.7352 103.954 76.5796 109.049C78.0502 113.026 80.6221 115.96 84.224 117.767C84.5546 117.938 84.9108 118.102 85.3465 118.284C85.5171 118.299 85.6808 118.294 85.8333 118.271C86.3271 118.193 86.7609 117.928 87.0552 117.522C87.3496 117.117 87.4696 116.621 87.3921 116.127C87.3183 115.654 87.0677 115.231 86.6859 114.929C86.3252 114.816 85.9739 114.684 85.6114 114.531C82.5833 113.191 80.4971 110.633 79.0427 106.481C78.4246 104.719 77.9046 102.946 77.4983 101.213L77.3434 100.551L77.919 100.911C78.5908 101.331 79.2708 101.536 79.8033 101.639C77.0346 99.2157 76.6933 93.3188 76.714 90.2744Z" fill="#23164D"/>
</g>
<mask id="mask1_1_673" style="mask-type:luminance" maskUnits="userSpaceOnUse" x="6" y="47" width="200" height="139">
<path d="M205.733 185.761H6.75879V55.5144L205.733 47.1V185.761Z" fill="white"/>
</mask>
<g mask="url(#mask1_1_673)">
<path d="M171.813 146.906C170.741 149.847 167.671 177.998 167.473 179.828C167.169 180.601 163.297 190.695 167.909 192.458C173.066 194.429 181.553 197.461 181.553 197.461C181.553 197.461 182.158 192.268 178.321 190.219C174.61 188.237 174.695 183.096 174.695 183.096L174.685 183.093C176.078 175.729 186.363 154.483 187.021 152.591C190.867 141.54 175.011 138.126 171.813 146.906Z" fill="white"/>
<path d="M181.791 197.843L181.46 197.724C181.375 197.694 172.91 194.67 167.809 192.721C166.935 192.386 166.286 191.753 165.883 190.839C164.342 187.346 166.84 180.677 167.198 179.76C167.551 176.518 170.489 149.723 171.55 146.809C173.277 142.07 178.553 140.749 182.656 142.211C186.053 143.421 189.303 146.889 187.287 152.683C187.122 153.156 186.419 154.703 185.354 157.046C182.102 164.201 176.061 177.492 174.975 183.073L174.976 183.101C174.975 183.151 174.94 188.096 178.453 189.971C182.413 192.085 181.838 197.438 181.832 197.492L181.791 197.843ZM172.076 147.001C171.23 149.328 168.959 168.749 167.751 179.859L167.733 179.93C167.441 180.673 164.925 187.28 166.396 190.612C166.741 191.396 167.269 191.914 168.009 192.197C172.513 193.919 179.645 196.479 181.298 197.071C181.345 195.891 181.241 192.096 178.189 190.466C174.734 188.622 174.438 184.256 174.416 183.281L174.378 183.264L174.41 183.042C175.47 177.436 181.568 164.022 184.843 156.815C185.863 154.57 186.601 152.948 186.756 152.5C188.638 147.094 185.623 143.864 182.468 142.74C178.621 141.368 173.684 142.589 172.076 147.001Z" fill="#23164D"/>
<path d="M179.186 111.611C188.995 118.372 196.841 138.341 189.758 140.486C189.758 140.486 190.81 143.617 191.899 144.952C191.899 144.952 181.053 152.476 170.008 152.486C170.008 152.486 169.315 149.819 168.338 149.264C168.338 149.264 162.448 150.516 159.565 143.668C156.681 136.82 161.118 129.436 159.093 121.266C156.137 109.341 168.428 104.196 179.186 111.611Z" fill="#23164D"/>
<path d="M184.807 149.224L184.526 148.597C187.995 147.039 190.565 145.421 191.407 144.868C190.38 143.397 189.473 140.716 189.433 140.594L189.32 140.259L189.659 140.156C190.966 139.761 191.767 138.672 192.04 136.924C193.005 130.735 186.731 117.227 178.992 111.894L179.382 111.329C187.448 116.889 193.733 130.521 192.718 137.03C192.429 138.884 191.559 140.143 190.196 140.694C190.492 141.515 191.328 143.708 192.165 144.735L192.4 145.022L192.095 145.234C192.065 145.254 189.116 147.288 184.807 149.224Z" fill="white"/>
<path d="M172.196 147.626C171.403 147.626 170.559 147.531 169.661 147.317L169.821 146.649C177.237 148.418 180.88 141.459 180.916 141.389L181.047 141.131L181.323 141.217C184.996 142.351 188.077 137.708 188.107 137.661L188.683 138.036C188.548 138.241 185.425 142.951 181.388 141.948C180.726 143.071 177.695 147.625 172.196 147.626Z" fill="white"/>
<path d="M190.718 261.318C183.158 250.939 178.705 232.216 173.557 216.583C170.508 207.324 168.63 193.484 171.922 184.803C177.371 170.427 168.064 160.406 164.668 154.779C161.272 149.153 132.372 141.879 126.694 146.078C118.528 152.114 113.182 158.087 112.128 177.559C110.726 203.469 119.343 275.003 119.343 275.003C141.856 280.006 162.096 276.596 162.096 276.596C163.283 270.879 163.118 257.031 163.118 257.031L174.682 269.819C179.589 264.385 186.512 262.194 190.718 261.318Z" fill="#23164D"/>
<path d="M147.626 96.2038V107.803C148.264 108.743 151.718 112.841 160.441 107.09V91.3906C160.441 91.3906 155.589 93.67 147.626 96.2038Z" fill="white"/>
<path d="M152.425 110.371C149.275 110.371 147.78 108.529 147.393 107.96L147.345 107.889V95.9993L147.541 95.9368C155.393 93.4387 160.274 91.16 160.322 91.1375L160.721 90.95V107.241L160.596 107.324C157.108 109.623 154.431 110.371 152.425 110.371ZM147.906 107.714C148.602 108.686 151.941 112.299 160.161 106.939V91.8256C158.853 92.4106 154.409 94.3287 147.906 96.4081V107.714Z" fill="#23164D"/>
<path d="M147.625 96.4075V101.553C154.416 101.689 154.585 94.8919 154.572 94.9013C151.298 96.9931 148.579 96.51 147.625 96.4075Z" fill="#23164D"/>
<path d="M164.384 108.112C164.384 108.112 163.096 103.442 160.704 103.161C158.313 102.879 147.518 102.272 146.42 103.336C145.323 104.401 144.923 106.101 144.923 106.101C144.923 106.101 134.443 102.522 128.727 110.657C124.479 116.702 123.087 139.057 126.693 146.746C126.693 146.746 141.144 142.512 164.819 155.081C178.967 162.592 171.444 129.821 172.608 124.216C173.806 118.447 170.121 109.802 164.384 108.112Z" fill="#23164D"/>
<path d="M168.508 156.534C167.388 156.534 166.101 156.151 164.659 155.384L164.981 154.778C167.26 155.989 169.069 156.171 170.353 155.322C174.283 152.723 173.3 141.256 172.581 132.882C172.234 128.839 171.96 125.646 172.272 124.146C173.424 118.599 169.896 110.094 164.289 108.441L164.483 107.782C170.413 109.529 174.154 118.466 172.944 124.286C172.653 125.687 172.938 128.994 173.266 132.824C173.999 141.368 175.002 153.071 170.731 155.894C170.085 156.321 169.343 156.534 168.508 156.534Z" fill="white"/>
<path d="M122.768 133.634C122.768 133.634 120.052 138.823 117.909 143.998C114.271 145.034 95.3931 150.749 89.795 152.444C89.795 152.444 86.0732 152.411 79.3144 147.284C72.5563 142.157 68.2063 144.936 68.2063 144.936C68.2063 144.936 65.6531 148.419 62.0544 153.366C61.5638 154.041 62.785 154.976 63.5325 154.604C63.9019 154.421 64.255 154.174 64.5919 153.885C64.3119 154.491 64.1788 154.954 64.3 155.144C64.615 155.635 66.8507 157.269 68.7088 158.579C70.0382 159.516 70.2394 159.056 71.4256 157.942C72.9281 156.531 74.3282 155.672 74.6219 155.733C75.2107 155.854 78.4563 158.87 79.2956 159.293C79.2956 159.293 79.2975 159.282 79.2975 159.281C81.7344 160.814 84.9913 161.175 84.9913 161.175L85.0369 161.091C89.1082 161.615 94.7669 162.197 101.549 162.429C112.02 162.787 121.619 161.769 127.778 159.486C131.507 158.104 137.236 155.56 137.835 148.709C138.333 143.009 132.24 136.413 122.768 133.634Z" fill="white"/>
<path d="M105.579 162.778C104.253 162.778 102.906 162.755 101.54 162.709C96.0733 162.522 90.5739 162.079 85.1908 161.392L85.147 161.473L84.9601 161.452C84.8258 161.437 81.6652 161.072 79.2102 159.555L79.1695 159.542C78.7527 159.331 77.8552 158.586 76.9058 157.796C76.0302 157.068 74.8308 156.071 74.5652 156.006C74.3789 156.022 73.1827 156.676 71.6177 158.145C71.492 158.263 71.377 158.374 71.2708 158.477C70.3133 159.402 69.872 159.741 68.5476 158.807C64.4776 155.939 64.167 155.454 64.0651 155.295C63.9689 155.145 63.9489 154.942 64.0108 154.659C63.8926 154.731 63.7745 154.797 63.6576 154.855C63.0758 155.144 62.3239 154.844 61.9364 154.385C61.6152 154.004 61.5739 153.551 61.8283 153.201C65.427 148.254 67.9808 144.771 67.9808 144.771L68.0558 144.7C68.2408 144.582 72.6489 141.876 79.4839 147.061C85.7039 151.779 89.3483 152.137 89.7595 152.162C95.4339 150.444 113.81 144.882 117.703 143.766C119.818 138.679 122.493 133.556 122.52 133.504L122.626 133.3L122.847 133.365C132.08 136.074 138.643 142.681 138.115 148.732C137.462 156.194 130.745 158.684 127.876 159.747C122.59 161.707 114.613 162.778 105.579 162.778ZM84.8833 160.788L85.0733 160.812C90.4995 161.511 96.0464 161.96 101.56 162.149C112.166 162.512 121.686 161.445 127.681 159.222C131.99 157.625 137.005 154.984 137.556 148.683C138.058 142.941 131.775 136.642 122.91 133.969C122.388 134.981 120.044 139.576 118.168 144.105L118.116 144.231L117.986 144.267C114.388 145.292 95.5607 150.991 89.8757 152.712L89.8352 152.725H89.7926C89.637 152.724 85.8995 152.631 79.1458 147.507C72.9858 142.834 68.8527 144.896 68.3983 145.149C68.0833 145.579 65.637 148.918 62.2814 153.531C62.1545 153.706 62.257 153.895 62.3651 154.023C62.6039 154.306 63.0914 154.511 63.4089 154.353C63.737 154.19 64.0739 153.961 64.4108 153.672L65.3882 152.832L64.8476 154.002C64.477 154.803 64.5389 154.992 64.542 155.001C64.6439 155.158 65.2795 155.817 68.872 158.349C69.8676 159.052 70.0045 158.922 70.8826 158.074C70.9908 157.97 71.107 157.857 71.2352 157.737C72.5202 156.531 74.1651 155.354 74.6801 155.458C75.027 155.529 75.7695 156.122 77.2652 157.366C77.9095 157.902 78.5708 158.451 79.0208 158.78V158.74L79.4483 159.044C81.4776 160.32 84.1245 160.77 84.8395 160.872L84.8833 160.788Z" fill="#23164D"/>
<path d="M68.0188 158.117L72.8644 152.045C72.8644 152.045 69.5669 155.667 68.0188 158.117Z" fill="#23164D"/>
<path d="M64.7319 153.136L69.5776 147.064C69.5776 147.064 66.2801 150.687 64.7319 153.136Z" fill="#23164D"/>
<path d="M66.1084 156.724L71.2659 149.124C71.2659 149.124 67.4128 154.136 66.1084 156.724Z" fill="#23164D"/>
<path d="M149.536 117.884C152.442 129.436 145.156 149.616 138.42 146.553C138.42 146.553 137.143 149.6 137.079 151.322C137.079 151.322 123.966 149.816 115.661 142.532C115.661 142.532 116.901 140.071 116.534 139.009C116.534 139.009 111.283 136.062 113.636 129.014C115.989 121.967 124.196 119.349 128.068 111.875C133.72 100.964 146.349 105.212 149.536 117.884Z" fill="#23164D"/>
<path d="M137.409 151.704L137.041 151.662C137.005 151.658 133.448 151.24 128.933 149.849L129.135 149.193C132.772 150.313 135.768 150.793 136.766 150.934C136.965 149.151 138.054 146.538 138.103 146.42L138.24 146.094L138.563 146.241C139.806 146.806 141.126 146.517 142.484 145.384C147.294 141.372 151.496 127.083 149.203 117.968L149.869 117.801C152.259 127.302 147.983 141.692 142.924 145.912C141.483 147.112 139.999 147.487 138.611 147C138.291 147.812 137.471 150.011 137.423 151.335L137.409 151.704Z" fill="white"/>
<path d="M139.229 144.004C138.993 144.069 133.535 145.542 131.168 142.128C129.75 142.592 123.038 144.387 118.814 138.422L119.374 138.026C123.778 144.244 130.886 141.513 131.181 141.397L131.451 141.291L131.601 141.537C133.61 144.814 138.991 143.359 139.045 143.344L139.229 144.004Z" fill="white"/>
<path d="M161.531 248.869C161.398 247.662 161.251 246.375 161.095 245.019C159.096 227.539 155.748 198.28 162.728 182.792C170.016 166.622 157.107 155.265 156.975 155.152L157.423 154.632C157.558 154.748 170.851 166.442 163.354 183.074C156.451 198.391 159.785 227.531 161.778 244.942C161.933 246.299 162.08 247.586 162.214 248.792L161.531 248.869Z" fill="#23164D"/>
<path d="M162.608 149.796C153.193 143.087 154.741 133.891 154.758 133.799L155.433 133.921C155.418 134.009 153.958 142.789 163.006 149.237L162.608 149.796Z" fill="white"/>
<path d="M162.36 87.3163C162.633 84.6519 155.401 67.3575 157.206 68.9038C159.587 70.9438 176.607 87.6113 177.46 88.3594C180.716 91.2144 178.86 97.625 173.835 99.2457L172.847 95.8906L171.193 100.364C168.197 102.818 162.5 103.918 160.673 101.839C155.033 95.42 162.264 88.2538 162.36 87.3163Z" fill="#23164D"/>
<path d="M148.443 98.8794C152.649 98.85 160.318 93.1219 162.019 89.2756C162.626 87.905 162.386 84.2644 161.834 82.5062C160.093 76.995 158.696 71.9969 154.417 70.4856C152.613 69.8531 146.057 72.0475 144.401 72.4037C141.24 73.0844 139.863 76.2844 139.829 81.8681C139.791 88.1319 141.03 98.9312 148.443 98.8794Z" fill="white"/>
<path d="M148.391 99.16C146.54 99.16 144.942 98.5007 143.64 97.2C139.884 93.4475 139.528 85.2269 139.549 81.8669C139.584 75.9213 141.106 72.8275 144.341 72.1307C144.723 72.0482 145.402 71.8575 146.189 71.6363C148.919 70.8688 153.046 69.71 154.51 70.2213C158.733 71.7132 160.188 76.3394 161.872 81.6969L162.101 82.4225C162.633 84.1163 162.947 87.8713 162.275 89.3894C160.581 93.2207 152.867 99.1288 148.444 99.16C148.427 99.16 148.409 99.16 148.391 99.16ZM153.533 70.6488C151.775 70.6488 148.456 71.5813 146.341 72.1757C145.513 72.4088 144.859 72.5925 144.46 72.6782C141.525 73.31 140.143 76.2313 140.109 81.87C140.089 85.16 140.431 93.2001 144.036 96.8038C145.241 98.0076 146.704 98.6088 148.441 98.6C152.607 98.5707 160.164 92.7794 161.763 89.1632C162.315 87.9151 162.116 84.345 161.566 82.5913L161.338 81.8657C159.698 76.6519 158.282 72.1488 154.323 70.7507C154.123 70.68 153.855 70.6488 153.533 70.6488Z" fill="#23164D"/>
<path d="M145.63 89.0174C145.226 88.9074 143.191 88.3112 142.874 87.3493C142.806 87.1393 142.78 86.8168 143.052 86.4731C144.522 84.6181 144.256 81.5843 144.163 80.8331C143.764 80.6212 142.542 80.1062 140.874 80.6674L140.631 79.9449C143.009 79.1443 144.659 80.2362 144.729 80.2831L144.863 80.3743L144.89 80.5356C144.918 80.6987 145.534 84.5643 143.649 86.9456C143.574 87.0393 143.589 87.0843 143.598 87.1112C143.724 87.4937 144.854 88.0168 145.829 88.2824L145.63 89.0174Z" fill="#23164D"/>
<path d="M161.028 79.4657C161.028 79.4657 158.586 82.36 156.557 77.8825C154.073 72.4025 145.373 73.2469 141.775 73.9238C141.775 73.9238 141.273 74.31 139.911 79.0982C139.911 79.0982 137.73 69.6325 148.456 67.2619C158.886 64.9575 161.681 75.0957 161.028 79.4657Z" fill="#23164D"/>
<path d="M167.011 68.485C167.945 71.1975 169.08 76.8581 163.19 73.2287C155.981 68.7875 147.256 79.8387 145.694 67.7937C144.031 54.9737 163.453 58.1462 167.011 68.485Z" fill="#23164D"/>
<path d="M160.567 79.6281C160.567 79.6281 161.918 79.7743 162.028 78.9299C162.137 78.0849 161.574 74.3193 161.574 74.3193L160.712 72.5487C160.712 72.5487 160.906 71.8868 162.151 72.3987C163.395 72.9106 160.215 66.2006 160.215 66.2006L153.744 66.2243C153.744 66.2243 151.822 66.7168 151.283 66.7168C150.744 66.7168 145.965 67.6418 145.965 67.6418L146.061 68.2774C146.061 68.2774 145.162 68.6393 144.985 68.7631C144.868 68.8443 143.085 70.7462 141.875 72.0412C141.243 72.7168 140.768 73.2274 140.768 73.2274C140.768 73.2274 140.393 74.0781 140.217 75.0037C140.041 75.9293 144.9 69.6943 144.9 69.6943L146.265 72.6012L146.705 73.1493C146.705 73.1493 148.031 73.1593 148.965 73.2731C150.183 73.4212 151.771 73.7412 151.771 73.7412C151.771 73.7412 154.066 74.3949 154.224 74.4887C154.381 74.5824 158.502 78.3918 158.502 78.3918L159.088 79.0349L160.567 79.6281Z" fill="#23164D"/>
<path d="M161.858 87.2688C164.028 87.2688 165.788 85.5095 165.788 83.3394C165.788 81.1693 164.028 79.41 161.858 79.41C159.688 79.41 157.929 81.1693 157.929 83.3394C157.929 85.5095 159.688 87.2688 161.858 87.2688Z" fill="white"/>
<path d="M162.182 85.5625C161.772 85.5625 161.366 85.4281 161.112 85.0256C160.726 84.415 161.148 84.0344 161.351 83.8519C161.563 83.6619 161.691 83.5462 161.61 83.2006C161.537 82.8825 161.361 82.6969 161.176 82.4994C160.77 82.0687 160.465 81.61 161.19 80.7481C161.429 80.4644 161.748 80.3119 162.113 80.3081C162.118 80.3081 162.123 80.3081 162.127 80.3081C163.241 80.3081 164.503 81.7069 164.645 81.8669L164.073 82.37C163.628 81.8656 162.71 81.0694 162.128 81.0694C162.126 81.0694 162.123 81.0694 162.12 81.0694C161.977 81.0712 161.87 81.1231 161.773 81.2381C161.423 81.6525 161.447 81.6775 161.73 81.9775C161.942 82.2025 162.232 82.5106 162.353 83.0294C162.533 83.8131 162.112 84.1919 161.861 84.4181C161.814 84.4606 161.744 84.5231 161.719 84.5581C161.724 84.5637 161.734 84.5856 161.756 84.6194C162.005 85.0169 162.899 84.6294 162.909 84.6262L163.234 85.315C162.963 85.4419 162.571 85.5625 162.182 85.5625Z" fill="#23164D"/>
<path d="M152.913 91.4606L152.731 92.2006C152.681 92.1881 147.689 91.01 145.513 93.9519L144.901 93.4988C147.378 90.1475 152.687 91.4056 152.913 91.4606Z" fill="#23164D"/>
<path d="M148.159 80.015L147.495 79.64C147.547 79.5469 148.813 77.3769 152.988 78.2644L152.829 79.0094C149.238 78.2444 148.201 79.9425 148.159 80.015Z" fill="#23164D"/>
<path d="M137.828 84.6337L137.228 84.1637C138.001 83.1774 138.408 82.3437 137.063 79.8462C135.558 77.0518 140.41 73.6324 140.632 73.4768L140.213 74.7968C138.858 75.7443 136.75 77.6587 137.733 79.4856C139.156 82.1249 138.881 83.2906 137.828 84.6337Z" fill="#23164D"/>
<path d="M150.892 83.8918C151.624 83.8918 152.217 83.2986 152.217 82.5668C152.217 81.835 151.624 81.2418 150.892 81.2418C150.16 81.2418 149.567 81.835 149.567 82.5668C149.567 83.2986 150.16 83.8918 150.892 83.8918Z" fill="#23164D"/>
<path d="M142.918 83.8918C143.65 83.8918 144.243 83.2986 144.243 82.5668C144.243 81.835 143.65 81.2418 142.918 81.2418C142.186 81.2418 141.593 81.835 141.593 82.5668C141.593 83.2986 142.186 83.8918 142.918 83.8918Z" fill="#23164D"/>
<path d="M157.633 80.3582C157.6 80.2726 157.5 80.0107 155.208 79.9988L154.573 79.7938L155.132 80.2801C155.584 80.5219 156.037 82.0026 156.173 82.5532L156.219 82.7382L156.388 82.6451C156.415 82.6313 157.023 82.2932 157.201 81.8413C157.236 81.7538 157.28 81.652 157.327 81.5438C157.563 80.9995 157.724 80.5951 157.633 80.3582Z" fill="#23164D"/>
<path d="M137.071 80.2575C135.012 80.4263 134.933 80.6988 134.906 80.7881C134.838 81.0263 134.998 81.415 135.23 81.94C135.277 82.0456 135.321 82.1444 135.355 82.23C135.533 82.6688 136.094 82.9656 136.118 82.9781L136.3 83.0738L136.336 82.8688C136.473 82.0919 136.818 80.7694 137.165 80.5294L137.621 80.2131L137.071 80.2575Z" fill="#23164D"/>
<path d="M144.197 81.2975C144.253 81.2975 144.311 81.2869 144.367 81.2644C145.85 80.6637 147.03 81.2444 147.042 81.2506C147.262 81.3612 147.532 81.2719 147.647 81.0506C147.762 80.8294 147.677 80.5594 147.457 80.4487C147.394 80.4175 145.902 79.6819 144.042 80.4344C143.812 80.5281 143.696 80.7894 143.786 81.0194C143.855 81.1919 144.02 81.2975 144.197 81.2975Z" fill="#23164D"/>
<path d="M151.393 88.3207C150.106 88.3207 149.05 87.9057 148.253 87.0888C146.96 85.7613 146.586 83.5157 146.66 81.9957C146.75 80.1838 148.005 79.3369 151.137 78.9738C151.393 78.9444 151.641 78.9307 151.881 78.9307C154.637 78.9307 156.416 80.7175 156.432 80.7357L156.463 80.7694L156.495 80.8382C156.814 82.5732 156.545 85.0038 155.241 86.6007C154.34 87.7038 153.094 88.2819 151.539 88.3188L151.393 88.3207ZM151.878 79.4738C151.657 79.4738 151.43 79.4863 151.196 79.5132C148.359 79.8419 147.276 80.5207 147.204 82.0182C147.188 82.3307 147.092 85.1169 148.643 86.7075C149.334 87.4169 150.26 87.7763 151.393 87.7763L151.53 87.775C152.918 87.7413 154.025 87.2313 154.82 86.2582C155.991 84.8244 156.246 82.6257 155.982 81.0588C155.681 80.7832 154.135 79.4738 151.878 79.4738Z" fill="#23164D"/>
<path d="M140.518 88.3207C139.33 88.3207 138.332 87.8951 137.55 87.0563C136.168 85.5732 135.77 83.0563 135.99 81.2201L135.994 81.1763L136.026 81.1101C136.117 80.9944 137.79 78.9507 140.443 78.9507C140.535 78.9507 140.629 78.9526 140.723 78.9576C143.552 79.1082 144.716 79.8694 144.873 81.6744C144.905 82.0301 145.13 85.1988 143.524 87.0357C142.832 87.8276 141.905 88.2576 140.77 88.3132C140.684 88.3176 140.6 88.3207 140.518 88.3207ZM136.52 81.3607C136.337 83.0594 136.706 85.3507 137.949 86.6851C138.624 87.4094 139.492 87.7769 140.527 87.7769C140.599 87.7769 140.672 87.7751 140.747 87.7713C141.728 87.7232 142.525 87.3557 143.115 86.6801C144.567 85.0201 144.36 82.0576 144.332 81.7257C144.2 80.2188 143.248 79.6369 140.69 79.5007C140.606 79.4963 140.523 79.4944 140.441 79.4944C138.248 79.4944 136.79 81.0488 136.52 81.3607Z" fill="#23164D"/>
<path d="M157.306 80.6613C157.241 80.612 157.198 80.5413 157.188 80.4595C157.176 80.3776 157.197 80.2951 157.247 80.2288C157.308 80.1495 157.398 80.1045 157.495 80.1045C157.533 80.1045 157.569 80.1113 157.603 80.1238L160.657 79.3345C160.657 79.3345 160.417 79.7951 160.383 79.8682L160.352 79.9363L157.368 80.7076L157.306 80.6613Z" fill="#23164D"/>
</g>
</svg>
