<svg width="168" height="178" viewBox="0 0 168 178" fill="none" xmlns="http://www.w3.org/2000/svg">
<path d="M153.236 50.6095C174.52 -13.8949 94.2608 -6.46554 69.2651 16.687C39.4826 44.2745 54.8302 65.0101 17.5852 103.778C-5.46172 127.766 -21.6786 194.799 75.1521 168.65C231 126.564 132.876 112.319 153.236 50.6095Z" fill="#90FFFB"/>
<path d="M44.412 138.29C43.8564 148.555 45.1157 172.913 55.3944 172.988C56.5582 172.998 76.5757 170.48 77.7469 170.48C101.908 170.48 109.614 156.428 125.493 154.286C125.484 148.178 125.286 136.656 124.129 124.638C122.475 107.478 127.608 84.962 110.912 80.6801C108.358 80.027 102.068 79.3745 94.5707 78.9276C90.9094 78.7214 86.9582 78.5558 83.007 78.4733C82.8913 78.4645 82.7757 78.4645 82.66 78.4645C79.6925 78.3989 76.725 78.3733 73.8975 78.4152C73.8975 78.4152 73.8976 78.4152 73.8894 78.4152C73.6494 78.4233 73.4182 78.4233 73.1869 78.4314H73.0707C66.3175 78.547 60.4245 78.9851 57.1345 79.9026C57.1345 79.9026 56.8782 79.9689 56.3907 80.1345C56.2832 80.1677 56.1844 80.2002 56.0932 80.242C55.7294 80.3739 55.4238 80.5227 55.1751 80.6795C50.7863 83.4158 47.8182 99.377 46.0082 117.33C45.3095 124.234 44.7826 131.435 44.412 138.29Z" fill="#23164D"/>
<path d="M85.6975 37.2033C85.6975 37.2033 84.4413 31.5821 74.7557 34.8871C67.7551 37.2758 72.1963 38.0864 72.1963 38.0864C72.1963 38.0864 67.4626 39.3439 70.5182 39.7389C70.5182 39.7389 65.2769 39.6139 66.1076 44.8589C66.9382 50.1052 70.2482 50.5245 70.5451 52.9589C70.8407 55.392 66.6769 58.4758 71.6513 61.4433C76.6257 64.4102 87.5882 69.5552 93.4001 58.7477C99.0301 48.2764 91.4219 32.1514 85.6975 37.2033Z" fill="#23164D"/>
<path d="M73.5906 60.9677C73.5906 60.9677 74.043 74.9114 72.8262 79.6596C72.8262 79.6596 77.0862 86.9852 94.5799 79.0858C94.5799 79.0858 93.3593 61.5427 93.6624 58.6646L73.5906 60.9677Z" fill="white"/>
<path d="M80.6282 83.0139C74.6075 83.0139 72.7357 79.9777 72.62 79.7796L72.5713 79.6952L72.5957 79.6008C73.7888 74.9383 73.3569 61.1139 73.3525 60.9746L73.3451 60.7546L93.9313 58.3933L93.9 58.6889C93.6019 61.5146 94.8056 78.8933 94.8181 79.0689L94.8294 79.2346L94.6788 79.302C88.4838 82.1002 83.9313 83.0139 80.6282 83.0139ZM73.0838 79.6158C73.6132 80.3571 78.3763 86.0908 94.3307 78.9364C94.2038 77.0939 93.2019 62.3539 93.4025 58.9346L73.8363 61.1796C73.8901 63.0246 74.1945 75.0746 73.0838 79.6158Z" fill="#23164D"/>
<path d="M66.9881 63.6121C66.8769 59.7877 67.1781 50.1383 67.5944 46.3971C68.5581 37.7246 90.9144 36.3952 91.9044 46.2183C92.0537 47.7008 92.6012 50.529 92.8294 53.4702C92.8462 53.4683 92.8637 53.4633 92.8818 53.4615C95.6568 53.1821 98.1331 55.2052 98.4138 57.9802C98.6931 60.7558 96.6713 63.2327 93.8956 63.5133C93.5331 63.5502 93.1769 63.5446 92.8275 63.5065C92.6594 67.3933 92.455 72.3808 89.5194 75.6365C87.6507 77.7102 83.1843 75.7815 82.2112 79.4921C77.3443 79.754 72.9319 78.9177 69.4106 75.5527C66.7969 73.0546 67.0994 67.4371 66.9881 63.6121Z" fill="white"/>
<path d="M80.6275 79.774C75.7637 79.774 72.1187 78.4709 69.245 75.7252C66.8968 73.4796 66.8319 68.8752 66.7788 65.1752C66.7713 64.6334 66.7644 64.1109 66.7494 63.6184C66.6394 59.8465 66.9406 50.114 67.3575 46.3702C67.8825 41.6496 74.4756 39.1208 80.4544 39.1208C80.4906 39.1208 80.5262 39.1209 80.5625 39.1215C85.5775 39.1471 91.6194 41.0146 92.1412 46.1934C92.1962 46.734 92.3056 47.4646 92.4318 48.3096C92.6412 49.7058 92.8993 51.4283 93.0475 53.2071C95.8656 53.0233 98.3644 55.1165 98.6506 57.9559C98.9438 60.8584 96.8206 63.4571 93.9193 63.7496C93.6375 63.7784 93.3487 63.7833 93.0543 63.7646C92.8825 67.7408 92.6175 72.5565 89.6962 75.7952C88.8606 76.7227 87.5631 76.9027 86.3087 77.0765C84.5918 77.3146 82.97 77.539 82.4412 79.5521L82.3975 79.7202L82.2237 79.7302C81.6781 79.7596 81.1456 79.774 80.6275 79.774ZM80.4525 39.599C74.6812 39.599 68.3256 41.9783 67.8312 46.424C67.4169 50.1515 67.1168 59.8465 67.2268 63.6046C67.2406 64.0996 67.2487 64.6246 67.2562 65.169C67.3075 68.7796 67.3719 73.274 69.575 75.3808C72.6213 78.2908 76.58 79.5271 82.0287 79.2627C82.6862 77.0971 84.5731 76.8358 86.2437 76.6046C87.4668 76.4352 88.6231 76.2752 89.3425 75.4765C92.2093 72.2971 92.4194 67.4421 92.5869 63.5408L92.5981 63.2865L92.8531 63.269C93.2 63.3077 93.5431 63.309 93.8719 63.2759C96.5119 63.0096 98.4425 60.6446 98.1769 58.004C97.91 55.3634 95.55 53.429 92.9062 53.6984L92.6631 53.7227L92.5918 53.4877C92.4487 51.6402 92.1781 49.8327 91.9606 48.3809C91.8331 47.5296 91.7225 46.794 91.6668 46.2415C91.1768 41.3777 85.3775 39.6227 80.56 39.5984C80.5243 39.599 80.4887 39.599 80.4525 39.599Z" fill="#23164D"/>
<path d="M66.7063 63.6195C66.715 64.1158 66.7226 64.6452 66.7313 65.1902C66.7894 68.8939 66.8476 73.5058 69.2113 75.762C70.3763 76.8695 71.6494 77.7377 73.0794 78.3827C73.1126 78.4071 73.1538 78.4233 73.1869 78.432C75.2944 79.3745 77.7325 79.8208 80.6094 79.8208C81.1388 79.8208 81.6757 79.812 82.2214 79.7795L82.4363 79.7714L82.4857 79.5646C82.6095 79.1183 82.7838 78.7627 83.0063 78.4739C83.7426 77.4902 85.0069 77.3083 86.3213 77.1264C87.5776 76.9533 88.892 76.7714 89.7351 75.8289C92.727 72.5139 92.9425 67.5627 93.1157 63.5789V63.5289C93.1319 63.0333 93.1569 62.5458 93.1813 62.0908L93.2226 61.4958L92.735 61.8433C91.9088 62.422 90.9751 62.8264 89.9413 63.0502C89.6019 63.1327 89.2551 63.1908 88.8914 63.2233C88.5851 63.257 88.2876 63.2733 88.007 63.2733C85.8326 63.2733 84.3282 62.397 82.725 61.4708L82.4194 61.2977C81.4769 60.752 80.3363 60.4133 79.1295 60.3308C78.9313 60.3139 78.7245 60.3058 78.5176 60.3058C77.7651 60.3058 77.0213 60.4045 76.3019 60.5952C76.1944 60.6195 76.087 60.6533 75.9882 60.6939C75.4426 60.8595 74.9463 61.0827 74.4669 61.3058C74.1857 61.4383 73.9051 61.5708 73.6157 61.6858C73.3101 61.8183 72.9957 61.9339 72.6569 62.0252C72.285 62.1327 71.8801 62.2152 71.4338 62.2645C71.1113 62.2983 70.7969 62.3145 70.4913 62.3145C69.2594 62.3145 68.1269 62.0495 67.1188 61.5458L66.962 61.4714L66.7057 61.3395L66.6976 61.7939C66.682 62.5039 66.6819 63.1239 66.7063 63.6195ZM81.4026 64.3052C81.4188 64.6033 81.3695 64.8845 81.2545 65.1564C80.7995 66.3139 79.3282 67.157 77.865 67.3052C77.7082 67.322 77.5426 67.3302 77.3851 67.3302C77.0463 67.3302 76.7076 67.2889 76.3851 67.2139C74.6576 66.8008 74.2363 65.6602 74.087 64.4533C74.2932 64.3708 74.8226 64.2058 75.9632 64.0895C76.2613 64.0564 76.575 64.032 76.8888 64.0152C77.3188 63.9908 77.7569 63.982 78.1863 63.982C80.0801 63.9833 81.1794 64.1983 81.4026 64.3052Z" fill="#23164D"/>
<path d="M72.6376 50.2221L72.3557 50.6565C72.3326 50.6415 69.982 49.1615 67.632 50.9008L67.3245 50.484C69.9595 48.5333 72.6107 50.2052 72.6376 50.2221Z" fill="#23164D"/>
<path d="M85.22 49.3571L84.8976 49.7621C81.7876 47.2927 79.8156 48.7871 79.7337 48.8521L79.4094 48.4483C79.5044 48.3727 81.7719 46.6158 85.22 49.3571Z" fill="#23164D"/>
<path d="M81.8232 55.0295C82.2806 55.0295 82.6514 54.6588 82.6514 54.2014C82.6514 53.744 82.2806 53.3733 81.8232 53.3733C81.3659 53.3733 80.9951 53.744 80.9951 54.2014C80.9951 54.6588 81.3659 55.0295 81.8232 55.0295Z" fill="#23164D"/>
<path d="M81.2545 54.2627C81.2877 54.5684 81.5682 54.7996 81.8826 54.7671C82.1882 54.734 82.4195 54.4534 82.387 54.1477C82.3538 53.8334 82.0814 53.6021 81.767 53.6352C81.4533 53.6677 81.2295 53.9484 81.2545 54.2627ZM80.742 54.3121C80.8001 54.9071 81.337 55.3452 81.932 55.2796C82.527 55.2215 82.9651 54.6927 82.9076 54.0896C82.8413 53.4946 82.3126 53.0565 81.7176 53.1221C81.122 53.1802 80.6839 53.7171 80.742 54.3121Z" fill="#23164D"/>
<path d="M70.1707 54.8014C70.6281 54.8014 70.9988 54.4306 70.9988 53.9733C70.9988 53.5159 70.6281 53.1451 70.1707 53.1451C69.7133 53.1451 69.3425 53.5159 69.3425 53.9733C69.3425 54.4306 69.7133 54.8014 70.1707 54.8014Z" fill="#23164D"/>
<path d="M69.6077 54.0314C69.6409 54.3458 69.9133 54.5683 70.2271 54.5358C70.244 54.5358 70.2608 54.5358 70.2771 54.5277C70.5664 54.4777 70.7646 54.2133 70.7396 53.9158C70.7233 53.7677 70.6483 53.6352 70.5333 53.5439C70.4258 53.4445 70.2683 53.3952 70.1114 53.4114C69.7977 53.4364 69.5746 53.717 69.6077 54.0314ZM69.0871 54.0808C69.1527 54.6102 69.5739 55.0152 70.0789 55.0564C70.1445 55.0652 70.2108 55.0652 70.2771 55.0564C70.8721 54.9983 71.3102 54.4614 71.2527 53.8664C71.2115 53.4364 70.922 53.0895 70.5414 52.9489C70.3927 52.8995 70.2271 52.8746 70.0621 52.8908C69.4677 52.9489 69.0296 53.4858 69.0871 54.0808Z" fill="#23164D"/>
<path d="M75.857 57.069L76.0258 57.559C75.7545 57.6527 75.4183 57.8177 75.362 58.0815C75.2914 58.4071 75.6358 58.8177 75.7739 58.9483L75.4201 59.3258C75.347 59.2583 74.712 58.6421 74.8545 57.9733C74.9408 57.5721 75.2783 57.2677 75.857 57.069Z" fill="#23164D"/>
<path d="M94.9326 55.444C96.1251 55.8108 96.8863 56.7821 96.9701 58.0402C97.1651 60.9958 93.8376 61.7052 93.8039 61.7121L93.7007 61.2052C93.8195 61.1796 96.6183 60.5752 96.4533 58.0746C96.3833 57.0227 95.7739 56.2439 94.7802 55.9396C93.7264 55.6152 92.5302 55.9365 91.9352 56.7002L91.5264 56.3808C92.262 55.4377 93.6613 55.0527 94.9326 55.444Z" fill="#23164D"/>
<path d="M94.5382 57.3308C94.7013 56.8977 94.6101 56.3764 94.2695 55.7827L94.7195 55.5239C95.1407 56.2583 95.2432 56.9271 95.0232 57.5127C94.6895 58.4039 93.7326 58.7421 93.6926 58.7558L93.5232 58.2652C93.5319 58.2627 94.2895 57.9958 94.5382 57.3308Z" fill="#23164D"/>
<path d="M127.822 141.228C128.729 137.006 127.627 121.443 127.627 121.443L108.613 120.758L110.06 138.953L127.822 141.228Z" fill="white"/>
<path d="M128.024 141.514L109.82 139.183L108.333 120.491L127.868 121.194L127.884 121.425C127.929 122.063 128.978 137.074 128.074 141.282L128.024 141.514ZM110.301 138.724L127.616 140.941C128.365 136.795 127.515 123.606 127.386 121.692L108.894 121.027L110.301 138.724Z" fill="#23164D"/>
<path d="M116.165 83.0482C121.569 86.3301 126.922 92.2507 130.375 116.108L132.856 130.076L106.694 125.713C106.694 125.713 103.293 113.997 103.417 113.252C103.541 112.508 116.165 83.0482 116.165 83.0482Z" fill="#23164D"/>
<path d="M93.3533 48.5895C93.3533 48.5895 93.2589 48.6251 93.062 48.6776C91.9327 49.0201 87.5364 50.1789 80.257 50.2314C78.6164 50.242 77.142 50.2483 75.8214 50.252C74.7351 50.0783 73.5545 49.887 72.2664 49.6776C69.6776 49.2526 67.4883 48.7445 65.6883 48.2439C65.0314 50.7714 65.4489 53.2995 65.9476 55.827C66.6739 56.3476 67.4377 56.847 68.232 57.3026C72.4777 59.7451 73.9646 57.5764 75.7958 57.1433C77.4408 57.9351 78.6508 60.0839 83.0633 58.3889C87.5795 56.6583 91.4289 53.6295 93.1814 52.1276C93.8314 51.5658 94.1908 51.2139 94.1908 51.2139L93.3533 48.5895ZM75.4314 52.9189C75.4227 53.0095 75.4114 53.0983 75.3976 53.1876C75.0114 55.6508 72.9595 56.8614 70.5932 56.4908C68.2189 56.1189 66.6039 53.8214 66.9895 51.3583C67.4439 48.4583 74.5177 51.0483 74.5177 51.0483C75.2552 51.4508 75.4983 52.2245 75.4314 52.9189ZM80.8558 57.2214C78.4614 57.2214 76.6214 55.7089 76.6214 53.2151C76.6214 53.1251 76.6239 53.0351 76.6295 52.9445C76.6702 52.2483 77.0314 51.522 77.8214 51.2376C77.8214 51.2376 85.2102 49.7733 85.2102 52.7083C85.2095 55.2014 83.2589 57.2214 80.8558 57.2214Z" fill="#23164D"/>
<path d="M66.0794 40.1658C65.6294 42.5227 64.9951 43.9039 65.5001 44.7339C66.0063 45.5633 92.2195 50.6433 95.8382 47.8102C97.132 46.7977 96.6676 42.3083 96.1644 41.3077C95.6613 40.3058 94.0551 41.2858 88.5344 41.1114C83.0138 40.9377 70.9982 39.6189 69.0857 38.7127C67.1738 37.8058 66.2738 39.1477 66.0794 40.1658Z" fill="#23164D"/>
<path d="M67.9832 38.5639C67.9832 38.5639 72.5575 29.9595 82.6006 31.0682C92.6425 32.1764 94.5932 39.6751 95.1119 41.5895L80.6531 43.3945C80.6531 43.3945 72.8819 41.5214 72.5144 41.3789C72.145 41.2364 67.9832 38.5639 67.9832 38.5639Z" fill="#23164D"/>
<path d="M72.8481 39.8414C69.9225 39.3008 67.9668 38.8127 67.9231 38.802L68.0425 38.3264C68.1425 38.3514 78.1956 40.8583 86.9531 40.7952L86.9575 41.2852C81.9919 41.3208 76.615 40.5377 72.8481 39.8414Z" fill="white"/>
<path d="M89.3906 40.4746C89.7487 36.1702 86.3375 33.2677 86.3037 33.2389L86.6174 32.8627C86.7662 32.987 90.2581 35.9596 89.8787 40.5146L89.3906 40.4746Z" fill="white"/>
<path d="M82.4251 39.1851C82.2557 36.4201 83.0213 33.0051 83.0538 32.8613L83.5319 32.9694C83.5244 33.0044 82.7489 36.462 82.9151 39.1545L82.4251 39.1851Z" fill="white"/>
<path d="M74.1013 38.107L73.655 37.9039C75.6975 33.4227 78.6026 32.3889 78.7251 32.3464L78.8838 32.8102C78.855 32.8202 76.0488 33.8327 74.1013 38.107Z" fill="white"/>
<path d="M55.2465 80.6207L54.6196 113.086L41.774 131.686C33.4046 119.67 19.8352 118.014 19.8352 118.014C40.4471 88.4038 55.2465 80.6207 55.2465 80.6207Z" fill="#23164D"/>
<path d="M44.8128 127.104L44.1934 127.066C44.2021 126.926 45.0446 112.9 46.5396 104.651L47.1503 104.761C45.6609 112.975 44.8203 126.963 44.8128 127.104Z" fill="white"/>
<path d="M41.7365 54.7519C41.4815 52.5251 45.2234 29.5476 46.9759 30.4882C49.2877 31.7282 66.1915 42.3007 67.0234 42.7594C70.1971 44.5101 69.8296 50.0832 66.0133 52.3088L64.6027 49.7438L64.0533 53.6969C62.0446 56.2407 53.389 62.1082 51.4378 63.3551C45.5253 67.1319 41.8253 55.5363 41.7365 54.7519Z" fill="#23164D"/>
<path d="M60.9118 89.0488C60.743 89.2388 60.5274 89.3901 60.2724 89.4813C59.4599 89.7738 58.5656 89.3526 58.2731 88.5407L46.8118 56.7007C46.5181 55.8882 46.9412 54.9938 47.7525 54.7013C48.565 54.4088 49.4593 54.83 49.7518 55.6419L61.2131 87.4826C61.4137 88.0394 61.278 88.635 60.9118 89.0488Z" fill="white"/>
<path d="M59.745 89.8869C58.9769 89.8869 58.2538 89.4101 57.9788 88.6469L46.5175 56.8069C46.3475 56.3363 46.3719 55.8269 46.585 55.3732C46.7981 54.9201 47.175 54.5776 47.6457 54.4076C48.62 54.0588 49.695 54.5644 50.0456 55.5363L61.5069 87.3776C61.7394 88.0219 61.6006 88.7425 61.1456 89.2563V89.2569C60.9381 89.4907 60.6719 89.6707 60.3775 89.7763C60.1694 89.8513 59.955 89.8869 59.745 89.8869ZM48.28 54.9219C48.1394 54.9219 47.9975 54.9457 47.8575 54.9957C47.5438 55.1088 47.2925 55.3375 47.15 55.6394C47.0075 55.9413 46.9919 56.2807 47.1056 56.5944L58.5669 88.4351C58.8 89.0826 59.5156 89.4194 60.1669 89.1869C60.3656 89.1157 60.5382 88.9988 60.6782 88.8407C60.9813 88.4976 61.0737 88.0182 60.9187 87.5882L49.4576 55.7469C49.2744 55.2394 48.7925 54.9219 48.28 54.9219Z" fill="#23164D"/>
<path d="M46.8089 61.225C50.9095 60.295 57.1739 53.0563 58.0107 48.935C58.3089 47.4663 57.2945 43.9619 56.3795 42.3625C53.497 37.3525 51.0614 32.7694 46.5576 32.2106C44.6608 31.9794 38.727 35.5281 37.1858 36.2319C34.2445 37.5738 33.5851 40.995 34.7489 46.455C36.0532 52.5819 39.5789 62.8644 46.8089 61.225Z" fill="white"/>
<path d="M53.9002 56.3982C51.6864 58.8975 49.0333 61.0075 46.8714 61.4982C45.0439 61.9119 43.3233 61.615 41.7577 60.6132C37.2846 57.7525 35.1746 49.7994 34.4746 46.5125C33.2365 40.6975 34.0583 37.3494 37.069 35.9763C37.4246 35.8138 38.0458 35.4825 38.7658 35.0988C41.2702 33.7632 45.0546 31.745 46.5914 31.9332C51.0358 32.4844 53.449 36.6913 56.2427 41.5619L56.6208 42.2232C57.5033 43.7638 58.6146 47.3638 58.2846 48.9907C57.8696 51.0382 56.102 53.9113 53.9002 56.3982ZM35.799 37.58C34.3459 39.2207 34.1039 42.0863 35.0227 46.3969C35.7083 49.6138 37.7652 57.395 42.0596 60.1407C43.4946 61.0588 45.0714 61.3307 46.7477 60.9513C50.8102 60.0294 56.9496 52.7532 57.7365 48.8788C58.0083 47.5413 57.0489 44.0975 56.1358 42.5019L55.7565 41.8413C53.0377 37.1 50.6896 33.0063 46.5233 32.4888C45.1621 32.3225 41.3239 34.37 39.0302 35.5932C38.2721 35.9975 37.6739 36.3169 37.302 36.4863C36.7052 36.7588 36.2046 37.1213 35.799 37.58Z" fill="#23164D"/>
<path d="M41.947 52.195C41.5282 52.1744 39.4132 52.0275 38.8976 51.1563C38.7851 50.9656 38.6913 50.6563 38.8839 50.2619C39.9214 48.1356 39.012 45.2288 38.7601 44.515C38.3257 44.3938 37.022 44.1525 35.5133 45.0575L35.1213 44.4044C37.2713 43.1132 39.1182 43.825 39.1957 43.8563L39.347 43.9175L39.4076 44.0688C39.4695 44.2225 40.9008 47.8657 39.5689 50.5957C39.5164 50.7032 39.5401 50.7438 39.5551 50.7682C39.7595 51.115 40.9757 51.3838 41.9857 51.4338L41.947 52.195Z" fill="#23164D"/>
<path d="M54.9407 39.565C54.9407 39.565 53.1757 42.9156 50.2338 38.9775C46.6325 34.1575 38.3163 36.8469 34.9463 38.2794C34.9463 38.2794 34.5394 38.7638 34.2344 43.7331C34.2344 43.7331 30.0744 34.955 40.0438 30.3413C49.7376 25.8531 54.6407 35.1569 54.9407 39.565Z" fill="#23164D"/>
<path d="M58.4302 27.5575C59.9239 30.0069 62.2452 35.2925 55.7146 33.01C47.7221 30.2169 41.5683 42.8813 37.4608 31.4513C33.0889 19.2844 52.7389 18.2213 58.4302 27.5575Z" fill="#23164D"/>
<path d="M54.5246 39.8232C54.5246 39.8232 55.8752 39.6764 55.8014 38.8276C55.7271 37.9795 54.3702 34.4214 54.3702 34.4214L53.1489 32.8757C53.1489 32.8757 53.1964 32.1876 54.5221 32.4207C55.8471 32.6539 51.3027 26.782 51.3027 26.782L44.9877 28.192C44.9877 28.192 43.2158 29.0851 42.6883 29.2001C42.1621 29.3157 37.6927 31.2439 37.6927 31.2439L37.9233 31.8439C37.9233 31.8439 37.1221 32.3901 36.9758 32.5489C36.8796 32.6532 35.5452 34.8926 34.6408 36.417C34.169 37.212 33.8146 37.8126 33.8146 37.8126C33.8146 37.8126 33.6309 38.7232 33.6571 39.6657C33.684 40.6076 37.0933 33.4757 37.0933 33.4757L39.0496 36.0226L39.597 36.4632C39.597 36.4632 40.8939 36.1895 41.8302 36.1001C43.052 35.9832 44.6714 35.9557 44.6714 35.9557C44.6714 35.9557 47.054 36.102 47.2284 36.1601C47.4015 36.2182 52.2427 39.0557 52.2427 39.0557L52.9533 39.5582L54.5246 39.8232Z" fill="#23164D"/>
<path d="M56.5807 47.1001C58.7509 47.1001 60.5101 45.3409 60.5101 43.1707C60.5101 41.0006 58.7509 39.2413 56.5807 39.2413C54.4106 39.2413 52.6514 41.0006 52.6514 43.1707C52.6514 45.3409 54.4106 47.1001 56.5807 47.1001Z" fill="white"/>
<path d="M57.3738 45.2726C56.9719 45.3607 56.5482 45.3163 56.2132 44.9775C55.7051 44.4638 56.0363 44.0013 56.1957 43.7794C56.3613 43.5488 56.4619 43.4082 56.3094 43.0882C56.1688 42.7932 55.9576 42.6494 55.7345 42.4969C55.2457 42.1625 54.8495 41.78 55.3732 40.7825C55.5451 40.4544 55.8245 40.2375 56.1807 40.155C56.1851 40.1538 56.1901 40.1532 56.1945 40.1513C57.2826 39.9132 58.8145 41.0088 58.987 41.135L58.5357 41.7488C57.9938 41.3513 56.9263 40.7713 56.3582 40.8957C56.3557 40.8957 56.3538 40.8963 56.3507 40.8969C56.2107 40.93 56.1176 41.0032 56.0476 41.1369C55.7957 41.6163 55.8238 41.635 56.1645 41.8675C56.4195 42.0413 56.7689 42.28 56.9976 42.7619C57.3426 43.4882 57.012 43.9482 56.8157 44.2232C56.7782 44.2757 56.7245 44.3513 56.707 44.3907C56.7139 44.395 56.7276 44.415 56.7557 44.4432C57.0839 44.7782 57.8745 44.2076 57.8832 44.2025L58.3482 44.8057C58.1107 44.9869 57.7532 45.1901 57.3738 45.2726Z" fill="#23164D"/>
<path d="M44.5352 55.1764L44.3196 54.4464C44.369 54.432 49.2752 52.9345 49.6714 49.2976L50.429 49.3801C49.9771 53.5232 44.7583 55.1107 44.5352 55.1764Z" fill="#23164D"/>
<path d="M42.4875 42.8601L41.7588 42.6363C41.79 42.5345 42.5613 40.1432 46.8294 40.1157L46.8339 40.8782C43.1614 40.8988 42.5125 42.7801 42.4875 42.8601Z" fill="#23164D"/>
<path d="M33.3858 49.5857L32.6995 49.255C33.2433 48.1257 33.4621 47.225 31.6133 45.0738C29.5433 42.6663 33.5514 38.2869 33.7345 38.0869L33.6083 39.4657C32.4877 40.6819 30.8389 43.0032 32.1908 44.5775C34.1458 46.8507 34.1277 48.0475 33.3858 49.5857Z" fill="#23164D"/>
<path d="M45.7039 46.0919C46.4357 46.0919 47.0289 45.4987 47.0289 44.7669C47.0289 44.0351 46.4357 43.4419 45.7039 43.4419C44.9721 43.4419 44.3789 44.0351 44.3789 44.7669C44.3789 45.4987 44.9721 46.0919 45.7039 46.0919Z" fill="#23164D"/>
<path d="M37.9146 47.8006C38.6464 47.8006 39.2397 47.2074 39.2397 46.4756C39.2397 45.7439 38.6464 45.1506 37.9146 45.1506C37.1828 45.1506 36.5896 45.7439 36.5896 46.4756C36.5896 47.2074 37.1828 47.8006 37.9146 47.8006Z" fill="#23164D"/>
<path d="M46.6431 115.807C51.9775 102.332 55.9038 94.6419 57.6813 91.3956L57.7163 91.4094C58.4613 90.2281 60.0063 89.955 58.0519 86.2944C55.3957 81.3213 54.1387 81.1094 55.9612 79.0794C55.9612 79.0794 56.4219 80.34 57.3306 80.5088C57.3306 80.5088 57.5119 84.0956 59.2819 83.3606C60.7538 82.7512 59.835 78.6081 59.6044 77.6656C59.5694 77.5444 59.5538 77.4775 59.5538 77.4775C59.5538 77.4775 59.5669 77.3594 59.575 77.1969C59.5775 77.1306 59.5875 77.0594 59.5931 76.9819C59.6 76.9412 59.6025 76.8925 59.6056 76.8444C59.6256 76.4894 59.645 76.0975 59.6281 75.9569C59.5931 75.6762 59.1931 74.5144 58.2219 73.4731C57.4881 72.6906 56.2794 71.5681 55.7231 71.0569C55.5431 70.8894 55.4231 70.7838 55.4231 70.7838C55.4231 70.7838 55.5725 70.8369 55.8063 70.9106C56.3407 71.06 57.3056 71.285 57.7931 71.0219C58.4825 70.6444 58.26 69.3244 56.8769 68.5825C55.4919 67.84 55.1338 66.7412 53.1956 66.6881C51.2607 66.6431 49.5832 67.1075 48.3675 67.1719C47.145 67.24 46.1244 70.7731 43.51 75.1462C40.9875 79.3694 47.4781 80.7525 47.5625 86.9606C44.2725 93.2513 33.9556 102.039 26.9894 109.353C22.4362 114.133 11.9763 125.911 23.525 133.935C34.6956 141.698 39.2419 134.502 46.6431 115.807Z" fill="white"/>
<path d="M18.3576 127.573C18.2313 127.094 18.1419 126.606 18.0913 126.106C17.4532 119.823 22.7657 113.442 26.8163 109.189C28.8513 107.053 31.2231 104.741 33.5163 102.506C39.1581 97.0057 44.9913 91.3195 47.3238 86.9051C47.2657 84.0638 45.8288 82.2745 44.56 80.6938C43.1325 78.9151 41.8994 77.3782 43.3057 75.0251C44.2951 73.3701 45.0669 71.8126 45.6875 70.5601C46.7925 68.3307 47.4588 66.9851 48.3551 66.9345C48.7982 66.9113 49.2994 66.8338 49.8794 66.7444C50.8588 66.5932 51.9701 66.4213 53.2019 66.4507C54.5663 66.4876 55.2007 67.0163 55.8738 67.5769C56.2013 67.8507 56.5407 68.1332 56.9888 68.3732C57.8482 68.8338 58.4081 69.597 58.4088 70.3126C58.4106 70.7207 58.2282 71.0563 57.9069 71.2319C57.5669 71.4163 57.0438 71.4332 56.3176 71.2832C57.2382 72.1401 57.9356 72.8213 58.3956 73.3113C59.4031 74.392 59.8244 75.607 59.8638 75.9288C59.8819 76.0757 59.8694 76.3938 59.8432 76.8588C59.84 76.9163 59.8356 76.9726 59.8281 77.0207L59.8219 77.0944C59.8175 77.1338 59.8138 77.1713 59.8126 77.2076C59.8063 77.3188 59.7994 77.4095 59.7944 77.4601C59.8013 77.4882 59.8151 77.5369 59.8332 77.5994C60.2219 79.1882 60.9488 82.9307 59.3732 83.5819C58.9526 83.7563 58.57 83.7382 58.2351 83.5269C57.3663 82.9788 57.1531 81.2788 57.1038 80.6976C56.4994 80.4957 56.1019 79.9044 55.8988 79.5169C54.9625 80.6563 55.2507 81.1226 56.4532 83.0713C56.9401 83.8613 57.5469 84.8438 58.2625 86.1832C59.9081 89.2669 59.1401 90.1194 58.3963 90.9426C58.2207 91.1376 58.0544 91.3213 57.9175 91.5382L57.8119 91.7051L57.7894 91.6963C55.9013 95.1638 52.0544 102.786 46.865 115.896C41.9157 128.399 38.2913 135.458 33.3257 136.958C30.5332 137.801 27.3756 136.903 23.3894 134.133C20.7044 132.267 19.0176 130.064 18.3576 127.573ZM47.5263 84.9226C47.6913 85.5438 47.7913 86.2188 47.8013 86.9588L47.8019 87.0194L47.7744 87.0732C45.4256 91.5626 39.5401 97.2988 33.8488 102.847C31.4538 105.183 29.1913 107.388 27.1626 109.518C24.8657 111.929 17.8769 119.268 18.5663 126.058C18.8669 129.015 20.5813 131.6 23.6607 133.741C27.5182 136.421 30.545 137.298 33.1869 136.501C37.9663 135.056 41.5269 128.082 46.4213 115.72C51.7151 102.348 55.617 94.6688 57.472 91.282L57.5725 91.0976L57.6263 91.1182C57.7575 90.9376 57.9013 90.7776 58.042 90.6219C58.7326 89.8563 59.33 89.1957 57.8419 86.407C57.1332 85.0813 56.5307 84.1051 56.0476 83.3207C54.7294 81.1845 54.3307 80.5395 55.7838 78.9201L56.0476 78.6257L56.185 78.9976C56.1894 79.0088 56.6126 80.1326 57.3745 80.2757L57.5594 80.3101L57.5694 80.4982C57.6 81.0851 57.8244 82.7026 58.49 83.1232C58.6888 83.2482 58.9188 83.2545 59.1913 83.1407C60.1369 82.7501 59.9638 80.1376 59.3738 77.722C59.3394 77.6038 59.3225 77.5338 59.3225 77.5338L59.3169 77.452C59.3175 77.4482 59.3294 77.3369 59.3369 77.1844C59.3388 77.1413 59.3432 77.0945 59.3482 77.0451L59.357 76.9626C59.3645 76.9094 59.3669 76.8707 59.3688 76.8307C59.3807 76.6176 59.4088 76.1194 59.3919 75.9851C59.3731 75.8219 59.0407 74.6988 58.0494 73.6357C57.5288 73.0801 56.6919 72.2713 55.5632 71.2313C55.3857 71.0676 55.2675 70.9632 55.2663 70.9626L54.3344 70.1426L55.5038 70.5582C55.5057 70.5588 55.6513 70.6107 55.8788 70.6826C57.0463 71.0088 57.5094 70.9038 57.6807 70.8107C57.9026 70.6895 57.9345 70.447 57.9345 70.3126C57.9326 69.9001 57.625 69.2526 56.7644 68.7907C56.2744 68.5282 55.9163 68.2301 55.5694 67.9413C54.9357 67.4132 54.3888 66.9582 53.19 66.9251C52.0013 66.8969 50.9125 67.0657 49.9519 67.2132C49.3844 67.3013 48.8476 67.3832 48.3813 67.4088C47.7632 67.4432 47.0363 68.9113 46.1151 70.7694C45.4913 72.0288 44.715 73.5957 43.715 75.267C42.4794 77.3363 43.5088 78.6176 44.9325 80.3926C45.8856 81.5826 47.0157 82.9907 47.5263 84.9226Z" fill="#23164D"/>
<path d="M55.7025 70.7132C55.0194 70.342 53.4231 69.342 53.4069 69.3314L53.3175 69.2764L53.2219 69.3164C51.2231 70.1682 49.8706 70.0914 49.8569 70.0901L49.6675 70.0776L49.6456 70.2651C49.4762 71.6676 48.8125 72.2514 48.7987 72.2633C48.7137 72.3333 48.7031 72.4589 48.7719 72.5426C48.7981 72.5745 48.8319 72.5958 48.8688 72.6076C48.93 72.6258 48.9994 72.6145 49.0531 72.5695C49.0844 72.5445 49.7932 71.9426 50.0175 70.4914C50.4607 70.487 51.6519 70.4026 53.2825 69.7232C53.6325 69.9414 54.9044 70.732 55.5138 71.0632C55.61 71.1164 55.7306 71.0782 55.7838 70.9826C55.8363 70.887 55.8 70.7657 55.7025 70.7132Z" fill="#23164D"/>
<path d="M57.5006 75.2607C56.5931 74.8657 54.7112 75.5232 53.7237 76.0251C52.4631 76.6651 51.1644 77.7738 51.1094 77.8201C51.0256 77.892 51.0162 78.017 51.0881 78.1007C51.1131 78.1307 51.1469 78.152 51.1812 78.1626C51.2444 78.1813 51.3156 78.1695 51.3688 78.1232C51.3819 78.112 52.6863 76.9989 53.9044 76.3807C55.0519 75.797 56.7062 75.3501 57.3406 75.627C57.9187 75.8788 59.0187 77.1395 59.3937 77.6032C59.4625 77.6882 59.5881 77.7026 59.675 77.6339C59.7606 77.5651 59.7731 77.4388 59.7043 77.3532C59.6475 77.2807 58.285 75.6032 57.5006 75.2607Z" fill="#23164D"/>
<path d="M54.5326 70.0769C51.3595 70.4876 47.802 73.0326 47.6532 73.1413C47.5632 73.2057 47.5438 73.3301 47.6082 73.4201C47.6351 73.4563 47.6713 73.4813 47.7113 73.4932C47.7688 73.5107 47.8345 73.5026 47.8858 73.4638C47.9226 73.4382 51.5101 70.8701 54.5838 70.4719C54.6926 70.4576 54.7695 70.3576 54.7557 70.2488C54.7413 70.1388 54.6401 70.0619 54.5326 70.0769Z" fill="#23164D"/>
<path d="M54.8963 72.6607C52.6945 72.6738 49.2845 74.5457 49.1407 74.6251C49.0445 74.6788 49.0095 74.7994 49.062 74.8957C49.0882 74.9438 49.1307 74.9763 49.1789 74.9907C49.2295 75.0057 49.2851 75.0013 49.3332 74.9738C49.3682 74.955 52.7976 73.0726 54.8989 73.0594C56.9376 73.0438 59.222 76.9526 59.2445 76.9926C59.3001 77.0882 59.422 77.1207 59.5182 77.0651C59.6126 77.0101 59.6451 76.8882 59.5901 76.7926C59.492 76.6226 57.1601 72.6469 54.8963 72.6607Z" fill="#23164D"/>
<path d="M158.496 90.0338H154.684C166.524 121.47 190.979 137.371 75.1527 168.649C70.0159 170.036 65.2008 171.159 60.6846 172.042C61.0739 172.685 61.5346 173.28 62.0608 173.813C63.7852 175.562 66.1765 176.643 68.8271 176.643H157.118C162.37 176.643 166.622 172.385 166.622 167.138V98.1601C166.622 93.6744 162.989 90.0338 158.496 90.0338Z" fill="white"/>
<path d="M154.684 90.0338H67.4489C62.9564 90.0338 59.3164 93.6738 59.3164 98.1601V167.138C59.3164 167.509 59.3352 167.881 59.3845 168.238C59.542 169.623 59.9983 170.908 60.6839 172.042C65.2008 171.159 70.0158 170.036 75.1521 168.649C190.98 137.371 166.525 121.47 154.684 90.0338Z" fill="#90FFFB"/>
<path d="M157.118 177.151H68.8271C66.1265 177.151 63.5946 176.091 61.6996 174.169C60.1102 172.558 59.1358 170.528 58.8808 168.296C58.8333 167.955 58.8096 167.573 58.8096 167.138V98.1601C58.8096 93.4001 62.6853 89.527 67.4496 89.527H158.495C163.256 89.527 167.13 93.3995 167.13 98.1601V167.138C167.13 172.659 162.638 177.151 157.118 177.151ZM67.4496 90.5413C63.2446 90.5413 59.8234 93.9601 59.8234 98.1601V167.138C59.8234 167.525 59.8446 167.862 59.8871 168.168C60.1171 170.185 60.9933 172.008 62.4221 173.456C64.1252 175.184 66.3996 176.136 68.8277 176.136H157.118C162.08 176.136 166.116 172.099 166.116 167.138V98.1601C166.116 93.9595 162.698 90.5413 158.496 90.5413H67.4496Z" fill="#23164D"/>
<path d="M147.63 95.4257C148.353 95.4257 148.94 94.8392 148.94 94.1157C148.94 93.3922 148.353 92.8057 147.63 92.8057C146.906 92.8057 146.32 93.3922 146.32 94.1157C146.32 94.8392 146.906 95.4257 147.63 95.4257Z" fill="#23164D"/>
<path d="M153.158 95.4257C153.882 95.4257 154.468 94.8392 154.468 94.1157C154.468 93.3922 153.882 92.8057 153.158 92.8057C152.435 92.8057 151.848 93.3922 151.848 94.1157C151.848 94.8392 152.435 95.4257 153.158 95.4257Z" fill="#23164D"/>
<path d="M158.688 95.4257C159.411 95.4257 159.998 94.8392 159.998 94.1157C159.998 93.3922 159.411 92.8057 158.688 92.8057C157.964 92.8057 157.378 93.3922 157.378 94.1157C157.378 94.8392 157.964 95.4257 158.688 95.4257Z" fill="#23164D"/>
<path d="M166.625 98.1594H87.1829V99.1732H166.625V98.1594Z" fill="#23164D"/>
<path d="M141.506 120.982H135.797V115.274H130.092V109.568H141.506V120.982Z" fill="#23164D"/>
<path d="M90.1396 120.982H84.4346V109.568H95.849V115.274H90.1396V120.982Z" fill="#23164D"/>
<path d="M95.849 166.639H84.4346V155.224H90.1396V160.931H95.849V166.639Z" fill="#23164D"/>
<path d="M141.506 166.639H130.092V160.931H135.797V155.224H141.506V166.639Z" fill="#23164D"/>
<path d="M112.97 133.824C116.91 133.824 120.105 130.629 120.105 126.689C120.105 122.748 116.91 119.554 112.97 119.554C109.029 119.554 105.835 122.748 105.835 126.689C105.835 130.629 109.029 133.824 112.97 133.824Z" fill="#23164D"/>
<path d="M130.092 155.225H95.8491C95.8491 145.77 103.513 138.103 112.969 138.103C122.423 138.103 130.092 145.77 130.092 155.225Z" fill="#23164D"/>
<path d="M117.688 86.8989C120.425 83.1776 123.423 87.4882 123.423 87.4882C126.08 84.477 128.549 87.4426 128.549 87.4426C129.745 87.1876 130.761 87.2039 131.623 87.3857C132.245 87.9126 133.044 91.0314 130.4 92.3226C127.756 93.6139 126.932 91.1645 126.932 91.1645C126.063 93.3464 123.68 93.9832 122.712 93.5689C121.762 93.1614 121.751 91.0383 121.75 90.9526C121.708 91.0164 120.734 92.4508 118.798 92.5026C116.871 92.5558 116.331 90.2351 116.303 90.1195C115.999 91.1826 115.635 91.8232 115.195 92.2282C114.554 92.8245 113.753 92.9164 112.752 93.0883C111.068 93.3783 108.74 90.4926 112.173 86.9526C115.606 83.4126 117.688 86.8989 117.688 86.8989Z" fill="white"/>
<path d="M123.392 93.9301C123.1 93.9301 122.835 93.8845 122.618 93.7907C121.859 93.4651 121.618 92.3138 121.543 91.5626C121.06 92.0401 120.148 92.7089 118.805 92.7451C117.377 92.7889 116.645 91.6588 116.308 90.8788C116.049 91.5613 115.74 92.0557 115.357 92.4076C114.717 93.0032 113.936 93.1345 113.032 93.2863L112.792 93.327C111.939 93.4757 111.001 92.9307 110.513 92.0051C109.723 90.5101 110.28 88.5595 112 86.7857C113.183 85.5651 114.349 85.0107 115.474 85.1432C116.603 85.2745 117.361 86.062 117.697 86.4938C118.443 85.5857 119.291 85.1514 120.18 85.1439C121.724 85.1645 122.986 86.5457 123.441 87.1138C124.236 86.2932 125.12 85.8757 125.997 85.8976C127.329 85.9164 128.328 86.8513 128.636 87.1788C129.72 86.9632 130.741 86.9538 131.673 87.1501L131.779 87.2014C132.218 87.5732 132.594 88.7301 132.453 89.8601C132.348 90.7001 131.926 91.8464 130.506 92.5395C129.603 92.9814 128.793 93.0582 128.101 92.7695C127.517 92.5251 127.149 92.0726 126.938 91.7226C126.324 92.8545 125.366 93.3945 124.811 93.6251C124.326 93.827 123.829 93.9301 123.392 93.9301ZM121.986 90.1657L121.991 90.9526C121.996 91.662 122.173 93.0757 122.808 93.3482C123.154 93.4957 123.851 93.502 124.625 93.1801C125.183 92.9488 126.195 92.367 126.708 91.0757L126.95 90.4707L127.161 91.087C127.164 91.0963 127.477 91.9882 128.291 92.3257C128.851 92.5576 129.523 92.4826 130.295 92.1057C131.521 91.507 131.885 90.5213 131.975 89.8001C132.101 88.7845 131.755 87.877 131.508 87.607C130.62 87.4313 129.644 87.4545 128.6 87.677L128.458 87.7076L128.365 87.5957C128.355 87.5838 127.344 86.3951 125.987 86.3782C125.16 86.3751 124.356 86.7945 123.604 87.6463L123.401 87.8763L123.226 87.6251C123.212 87.6051 121.827 85.6457 120.173 85.6251C119.36 85.6013 118.581 86.0907 117.883 87.0407L117.668 87.3314L117.482 87.022C117.474 87.0089 116.714 85.7695 115.415 85.6207C114.452 85.5114 113.418 86.0145 112.346 87.1207C110.778 88.737 110.253 90.4782 110.94 91.7788C111.326 92.5113 112.073 92.962 112.711 92.8513L112.953 92.8107C113.815 92.6657 114.495 92.5513 115.031 92.0526C115.465 91.6526 115.796 91.0182 116.073 90.0545L116.325 89.172L116.538 90.0651C116.593 90.297 117.098 92.3176 118.792 92.2632C120.6 92.2145 121.512 90.877 121.55 90.8195L121.986 90.1657Z" fill="#23164D"/>
<path d="M121.79 90.8038C121.757 90.207 121.883 89.6057 122.108 89.0482C122.221 88.7688 122.372 88.5045 122.55 88.2613C122.724 88.0145 122.95 87.8076 123.188 87.6313C123.001 87.8638 122.822 88.0932 122.676 88.3451C122.53 88.5957 122.393 88.8513 122.287 89.1213C122.175 89.3888 122.082 89.6645 122 89.9451C121.92 90.227 121.846 90.5113 121.79 90.8038Z" fill="#23164D"/>
<path d="M126.939 90.9082C126.906 90.312 127.031 89.7101 127.256 89.1526C127.37 88.8739 127.521 88.6095 127.699 88.3657C127.872 88.1188 128.098 87.9126 128.336 87.7357C128.149 87.9688 127.971 88.1982 127.824 88.4501C127.678 88.7001 127.541 88.9563 127.435 89.2263C127.323 89.4938 127.23 89.7695 127.148 90.0495C127.068 90.3314 126.995 90.6157 126.939 90.9082Z" fill="#23164D"/>
<path d="M116.303 90.1151C116.271 89.5189 116.396 88.917 116.621 88.3601C116.734 88.0808 116.886 87.8164 117.063 87.5732C117.237 87.3264 117.463 87.1195 117.701 86.9426C117.514 87.1758 117.335 87.4051 117.189 87.657C117.043 87.9076 116.906 88.1633 116.8 88.4333C116.688 88.7008 116.595 88.9764 116.513 89.257C116.433 89.5389 116.36 89.8239 116.303 90.1151Z" fill="#23164D"/>
</svg>
