<svg width="15" height="19" viewBox="0 0 15 19" fill="none" xmlns="http://www.w3.org/2000/svg">
<path d="M8.29447 0.0346374C8.32493 0.0361594 8.35376 0.0478081 8.38061 0.0659761C9.12892 0.30095 9.80316 0.747967 10.3146 1.36534L12.0925 3.51121C13.5057 5.21703 14.279 7.36274 14.2791 9.57789V9.79158C14.2791 12.1356 13.363 14.3868 11.7263 16.0648L10.4314 17.3924C9.63775 18.2061 8.57288 18.693 7.44558 18.766L7.47692 18.0606C7.45288 18.0664 7.42758 18.0692 7.4016 18.0679C7.25688 18.0607 7.14537 17.9376 7.15254 17.7928C7.15975 17.6481 7.28302 17.5364 7.42781 17.5436C7.45279 17.5448 7.47671 17.5498 7.49928 17.5575L7.52347 17.0132C7.50116 17.0181 7.47792 17.0206 7.45401 17.0194C7.30924 17.0122 7.19758 16.8889 7.20477 16.7442C7.21199 16.5994 7.33526 16.4879 7.48004 16.4951C7.50299 16.4963 7.52507 16.5004 7.54601 16.507L7.57002 15.9658C7.54945 15.9699 7.52812 15.9719 7.50624 15.9708C7.36146 15.9636 7.24998 15.8403 7.25718 15.6955C7.2644 15.5508 7.38751 15.4393 7.53227 15.4465C7.55321 15.4475 7.57346 15.4511 7.59275 15.4567L7.61657 14.9183C7.59776 14.9216 7.57834 14.9231 7.55848 14.9221C7.41369 14.9149 7.3022 14.7917 7.30942 14.6469C7.31663 14.5021 7.43975 14.3906 7.5845 14.3978C7.60344 14.3988 7.62187 14.4017 7.63948 14.4064L7.6633 13.8707C7.64622 13.8733 7.62863 13.8744 7.61071 13.8735C7.46592 13.8663 7.35443 13.743 7.36165 13.5982C7.36888 13.4535 7.49214 13.3419 7.63691 13.3492C7.65385 13.35 7.67033 13.3524 7.68621 13.3563L7.70985 12.8226C7.69456 12.8246 7.67888 12.8256 7.66294 12.8248C7.51817 12.8176 7.40666 12.6943 7.41388 12.5496C7.42112 12.4048 7.54438 12.2933 7.68914 12.3005C7.7041 12.3013 7.71861 12.3036 7.73276 12.3067L7.7564 11.7745C7.74292 11.776 7.72914 11.7769 7.71517 11.7762C7.57041 11.7689 7.45889 11.6457 7.46611 11.5009C7.47336 11.3562 7.59662 11.2446 7.74138 11.2519C7.75439 11.2525 7.76708 11.2543 7.7795 11.2568L7.80314 10.7266C7.79143 10.7276 7.77946 10.7281 7.7674 10.7275C7.62269 10.7203 7.51117 10.5972 7.51834 10.4524C7.5188 10.4433 7.51973 10.4342 7.52109 10.4253C7.52946 10.2721 7.65259 10.1541 7.79691 10.1612C7.80755 10.1618 7.818 10.1631 7.82824 10.1649L7.84969 9.67851C7.83985 9.67913 7.82989 9.67937 7.81981 9.67887C7.67505 9.67166 7.56339 9.54855 7.57057 9.40379C7.5714 9.38713 7.57396 9.37088 7.57772 9.35523C7.57638 9.34114 7.57571 9.32675 7.57644 9.31216C7.58412 9.1583 7.70768 9.03941 7.85244 9.0466C7.86098 9.04703 7.86944 9.04791 7.87773 9.04917L7.89642 8.6304C7.88838 8.63074 7.88024 8.63081 7.87205 8.6304C7.72727 8.62319 7.61578 8.49991 7.62299 8.35514C7.62435 8.32769 7.62968 8.30136 7.63875 8.27688C7.63308 8.25156 7.6306 8.22488 7.63197 8.19753C7.63967 8.0437 7.76323 7.9248 7.90797 7.93197C7.91443 7.9323 7.92088 7.933 7.92721 7.93381L7.95213 7.37466C7.94673 7.37474 7.94129 7.37493 7.93582 7.37466C7.79105 7.36744 7.67985 7.23695 7.6875 7.08308C7.69516 6.92922 7.81874 6.81035 7.9635 6.81753C7.96798 6.81775 7.97246 6.81835 7.97687 6.81881L8.00161 6.26003C7.99821 6.26 7.99478 6.26038 7.99135 6.26021C7.84657 6.253 7.73536 6.12234 7.74302 5.96845C7.7507 5.8146 7.87428 5.69573 8.01902 5.7029C8.02152 5.70302 8.02407 5.70344 8.02654 5.70363L8.05146 5.14558C8.04994 5.14554 8.04841 5.14566 8.04688 5.14558C7.9021 5.13837 7.79089 5.00771 7.79855 4.85382C7.80626 4.69997 7.92997 4.58106 8.07474 4.58827C8.07523 4.58829 8.07572 4.58824 8.0762 4.58827L8.10095 4.03077C7.95691 4.02274 7.84647 3.89271 7.85408 3.73938C7.86168 3.58702 7.98296 3.46916 8.12587 3.47382L8.15061 2.91559C8.00946 2.90438 7.90208 2.77601 7.90961 2.62475C7.9171 2.47449 8.03519 2.35791 8.17554 2.35919L8.20028 1.80041C8.06204 1.78614 7.95789 1.65927 7.96533 1.51012C7.97273 1.36206 8.08738 1.24665 8.22502 1.24457L8.24994 0.685235C8.11467 0.668015 8.01357 0.542666 8.02086 0.395673C8.02853 0.241783 8.14969 0.027422 8.29447 0.0346374Z" fill="#252B65"/>
<path d="M6.15318 0.000549801C6.1545 0.000481675 6.1559 0.000225853 6.15722 0.000183267C6.30205 -0.0044292 6.40546 0.147277 6.41049 0.302574C6.4153 0.451592 6.31102 0.576762 6.17463 0.590852L6.19534 1.15531C6.33121 1.16192 6.44198 1.27955 6.44678 1.42765C6.45153 1.57487 6.34983 1.69881 6.21586 1.71538L6.23657 2.28039C6.37019 2.28956 6.47833 2.40642 6.48307 2.55272C6.48776 2.6982 6.38853 2.82103 6.25691 2.8399L6.27781 3.40602C6.40914 3.41769 6.51467 3.5333 6.51935 3.6778C6.52399 3.82145 6.4273 3.94304 6.29815 3.96425L6.31904 4.53164C6.44807 4.54574 6.55102 4.66019 6.55564 4.80288C6.56021 4.94468 6.46603 5.06475 6.33938 5.08822L6.36028 5.65745C6.48697 5.6739 6.58736 5.7871 6.59193 5.92795C6.59644 6.06791 6.50477 6.18673 6.38062 6.21238L6.40151 6.78307C6.41173 6.78461 6.42175 6.78673 6.43157 6.78949C6.5642 6.79963 6.67121 6.91516 6.67586 7.05944C6.6808 7.21341 6.56727 7.34195 6.4224 7.34662L6.42204 7.34644L6.44256 7.9043C6.58651 7.90087 6.70684 8.02156 6.71178 8.1748C6.71667 8.32712 6.60572 8.45417 6.46309 8.46143L6.48361 9.01985C6.62531 9.01933 6.74282 9.13872 6.7477 9.29016C6.75212 9.42752 6.66233 9.54427 6.54006 9.5713C6.52853 9.57644 6.51665 9.58077 6.50432 9.58413L6.52448 10.1354C6.66399 10.1376 6.77898 10.2558 6.78381 10.4055C6.78773 10.5274 6.71725 10.633 6.61593 10.6742C6.5944 10.6889 6.57085 10.7003 6.54556 10.7077L6.56535 11.2508C6.70265 11.2556 6.81495 11.3729 6.81973 11.5209C6.82447 11.668 6.72121 11.7915 6.58569 11.8064L6.60622 12.3663C6.74129 12.3737 6.85111 12.4901 6.85583 12.6363C6.86052 12.7816 6.75968 12.9041 6.62656 12.9214L6.64709 13.4817C6.77992 13.4916 6.88708 13.6072 6.89175 13.7516C6.89638 13.8952 6.79802 14.0165 6.66725 14.036L6.68796 14.5978C6.81851 14.6101 6.92305 14.7243 6.92767 14.867C6.93225 15.0088 6.83643 15.1287 6.70812 15.1505L6.72883 15.7139C6.85708 15.7286 6.95921 15.8415 6.96377 15.9823C6.96829 16.1223 6.87493 16.2408 6.74917 16.2649L6.76988 16.8298C6.89574 16.8468 6.99518 16.9587 6.99969 17.0977C7.00415 17.2358 6.91332 17.3532 6.79004 17.3794L6.84099 18.7652C5.72206 18.6899 4.66523 18.2066 3.87518 17.4006L2.5749 16.0743C0.924435 14.3907 0 12.1269 0 9.76923V9.57844C0 7.36348 0.776064 5.21851 2.19334 3.51634L3.991 1.35746C4.53641 0.702435 5.26539 0.240381 6.07126 0.021259C6.09625 0.0098805 6.12248 0.00281279 6.14934 0.000916334C6.15062 0.000595399 6.15191 0.000319719 6.15318 0V0.000549801Z" fill="#252B65"/>
</svg>
