<svg width="39" height="50" viewBox="0 0 39 50" fill="none" xmlns="http://www.w3.org/2000/svg">
<path d="M22.0991 0.0922852C22.1803 0.0963403 22.2571 0.127376 22.3286 0.175781C24.3223 0.801826 26.1187 1.99282 27.4814 3.6377L32.2183 9.35498C35.9834 13.8998 38.0439 19.6167 38.0439 25.5186V26.0879C38.0439 32.3331 35.6033 38.331 31.2427 42.8018L27.7925 46.3389C25.678 48.5067 22.8409 49.8041 19.8374 49.9985L19.9209 48.1191C19.8568 48.1348 19.7894 48.1421 19.7202 48.1387C19.3346 48.1193 19.0375 47.7914 19.0566 47.4058C19.0759 47.02 19.4043 46.7225 19.79 46.7417C19.8566 46.745 19.9203 46.7584 19.9805 46.7788L20.0449 45.3286C19.9855 45.3417 19.9236 45.3484 19.8599 45.3452C19.4741 45.326 19.1766 44.9975 19.1958 44.6118C19.215 44.2261 19.5435 43.9291 19.9292 43.9482C19.9903 43.9513 20.0492 43.9624 20.105 43.98L20.1689 42.5381C20.1141 42.5489 20.0573 42.5542 19.999 42.5513C19.6133 42.532 19.3162 42.2036 19.3354 41.8179C19.3547 41.4322 19.6827 41.1352 20.0684 41.1543C20.1242 41.1571 20.1781 41.1667 20.2295 41.1816L20.293 39.7471C20.2428 39.7558 20.1911 39.76 20.1382 39.7573C19.7524 39.7381 19.4554 39.4097 19.4746 39.0239C19.4938 38.6383 19.8219 38.3413 20.2075 38.3604C20.258 38.3629 20.3071 38.3708 20.354 38.3833L20.4175 36.9561C20.372 36.9629 20.3251 36.9658 20.2773 36.9634C19.8916 36.9441 19.5945 36.6157 19.6138 36.23C19.633 35.8443 19.9614 35.5472 20.3472 35.5664C20.3923 35.5687 20.4362 35.5751 20.4785 35.5854L20.5415 34.1636C20.5007 34.1688 20.459 34.1716 20.4165 34.1694C20.0308 34.1502 19.7337 33.8218 19.7529 33.436C19.7722 33.0504 20.1006 32.7532 20.4863 32.7725C20.5262 32.7745 20.5648 32.7808 20.6025 32.7891L20.6655 31.3711C20.6296 31.3749 20.5929 31.3773 20.5557 31.3755C20.17 31.3562 19.8729 31.0278 19.8921 30.6421C19.9114 30.2564 20.2398 29.9593 20.6255 29.9785C20.6602 29.9802 20.694 29.9852 20.7271 29.9917L20.79 28.5791C20.7589 28.5818 20.727 28.5831 20.6948 28.5815C20.3093 28.5622 20.0122 28.2342 20.0312 27.8486C20.0325 27.8242 20.035 27.8 20.0386 27.7764C20.0609 27.3683 20.3889 27.0536 20.7734 27.0728C20.8018 27.0742 20.8296 27.0777 20.8569 27.0825L20.9141 25.7866C20.8878 25.7883 20.8613 25.7889 20.8345 25.7876C20.4488 25.7684 20.1513 25.4404 20.1704 25.0547C20.1726 25.0103 20.1794 24.967 20.1895 24.9253C20.1859 24.8878 20.1841 24.8494 20.186 24.8105C20.2065 24.4006 20.5357 24.0839 20.9214 24.103C20.9441 24.1042 20.9667 24.1065 20.9888 24.1099L21.0386 22.9941C21.0171 22.995 20.9955 22.9952 20.9736 22.9941C20.5879 22.9749 20.2909 22.6465 20.3101 22.2607C20.3137 22.1876 20.3279 22.1175 20.3521 22.0522C20.337 21.9848 20.3304 21.9137 20.334 21.8408C20.3545 21.431 20.6837 21.1142 21.0693 21.1333C21.0866 21.1342 21.1037 21.136 21.1206 21.1382L21.187 19.6484C21.1726 19.6487 21.1581 19.6492 21.1436 19.6484C20.7578 19.6292 20.4616 19.2815 20.4819 18.8716C20.5024 18.4616 20.8316 18.1449 21.2173 18.1641C21.2292 18.1647 21.2412 18.1663 21.2529 18.1675L21.3188 16.6787C21.3098 16.6786 21.3006 16.6797 21.2915 16.6792C20.9058 16.66 20.6094 16.3119 20.6299 15.9019C20.6503 15.4919 20.9796 15.1752 21.3652 15.1943C21.3719 15.1947 21.3787 15.1958 21.3853 15.1963L21.4517 13.7095C21.4476 13.7093 21.4435 13.7097 21.4395 13.7095C21.0537 13.6902 20.7574 13.3421 20.7778 12.9321C20.7984 12.5222 21.128 12.2054 21.5137 12.2246C21.515 12.2247 21.5163 12.2245 21.5176 12.2246L21.5835 10.7393C21.1997 10.7178 20.9055 10.3714 20.9258 9.96289C20.946 9.55697 21.2691 9.24295 21.6499 9.25537L21.7158 7.76807C21.3397 7.7382 21.0537 7.39616 21.0737 6.99316C21.0937 6.59282 21.4083 6.28222 21.7822 6.28564L21.8481 4.79688C21.4798 4.75884 21.2024 4.42081 21.2222 4.02344C21.2419 3.62896 21.5473 3.32147 21.9141 3.31592L21.9805 1.82568C21.6201 1.7798 21.3507 1.44584 21.3701 1.0542C21.3906 0.644186 21.7134 0.073061 22.0991 0.0922852Z" fill="white"/>
<path d="M16.394 0.00146484C16.3976 0.00128334 16.4013 0.000601745 16.4048 0.000488281C16.7907 -0.0118008 17.0662 0.392393 17.0796 0.806152C17.0924 1.20318 16.8146 1.53668 16.4512 1.57422L16.5063 3.07812C16.8684 3.09571 17.1635 3.40913 17.1763 3.80371C17.1889 4.19594 16.918 4.52617 16.561 4.57031L16.6162 6.07568C16.9722 6.10011 17.2603 6.41146 17.2729 6.80127C17.2855 7.18886 17.0211 7.51611 16.6704 7.56641L16.7261 9.07471C17.076 9.1058 17.3572 9.41384 17.3696 9.79883C17.382 10.1816 17.1244 10.5055 16.7803 10.562L16.8359 12.0737C17.1797 12.1113 17.454 12.4162 17.4663 12.7964C17.4785 13.1742 17.2276 13.4941 16.8901 13.5566L16.9458 15.0732C17.2834 15.1171 17.5508 15.4187 17.563 15.7939C17.575 16.1668 17.3308 16.4834 17 16.5518L17.0557 18.0723C17.0829 18.0764 17.1096 18.082 17.1357 18.0894C17.4891 18.1164 17.7742 18.4242 17.7866 18.8086C17.7998 19.2188 17.4973 19.5613 17.1113 19.5737L17.1104 19.5732L17.165 21.0596C17.5486 21.0504 17.8691 21.372 17.8823 21.7803C17.8953 22.1861 17.5997 22.5246 17.2197 22.5439L17.2744 24.0317C17.6519 24.0303 17.965 24.3484 17.978 24.752C17.9898 25.1179 17.7506 25.429 17.4248 25.501C17.3941 25.5147 17.3624 25.5262 17.3296 25.5352L17.3833 27.0039C17.755 27.0098 18.0613 27.3248 18.0742 27.7236C18.0847 28.0484 17.8969 28.3297 17.627 28.4395C17.5696 28.4786 17.5068 28.509 17.4395 28.5288L17.4922 29.9756C17.858 29.9885 18.1572 30.3011 18.1699 30.6953C18.1826 31.0872 17.9074 31.4163 17.5464 31.4561L17.6011 32.9478C17.9609 32.9675 18.2535 33.2775 18.2661 33.667C18.2786 34.0542 18.0099 34.3807 17.6553 34.4268L17.71 35.9194C18.0639 35.9459 18.3494 36.2539 18.3618 36.6387C18.3742 37.0213 18.1121 37.3444 17.7637 37.3965L17.8188 38.8931C18.1667 38.926 18.4452 39.2303 18.4575 39.6104C18.4697 39.9881 18.2144 40.3076 17.8726 40.3657L17.9277 41.8667C18.2694 41.9059 18.5415 42.2068 18.5537 42.582C18.5657 42.9548 18.317 43.2708 17.9819 43.335L18.0371 44.8398C18.3725 44.8853 18.6374 45.1834 18.6494 45.5537C18.6613 45.9217 18.4193 46.2344 18.0908 46.3042L18.2266 49.9966C15.2454 49.7958 12.4297 48.5081 10.3247 46.3608L6.86035 42.8271C2.46299 38.3414 0 32.3099 0 26.0283V25.52C0 19.6187 2.06768 13.9038 5.84375 9.36865L10.6333 3.6167C12.0864 1.87151 14.0287 0.640453 16.1758 0.0566406C16.2423 0.0263248 16.3122 0.00749417 16.3838 0.00244141C16.3872 0.00158633 16.3906 0.000851833 16.394 0V0.00146484Z" fill="white"/>
</svg>
